<?xml version="1.0" standalone="no"?>
<!DOCTYPE svg PUBLIC "-//W3C//DTD SVG 20010904//EN"
 "http://www.w3.org/TR/2001/REC-SVG-20010904/DTD/svg10.dtd">
<svg version="1.0" xmlns="http://www.w3.org/2000/svg"
 width="1024.000000pt" height="683.000000pt" viewBox="0 0 1024.000000 683.000000"
 preserveAspectRatio="xMidYMid meet">
<metadata>
Created by potrace 1.16, written by Peter Selinger 2001-2019
</metadata>
<g transform="translate(0.000000,683.000000) scale(0.100000,-0.100000)"
fill="#000000" stroke="none">
<path d="M0 3415 l0 -3415 2139 0 c1892 0 2140 2 2145 15 3 8 14 15 24 15 18
0 42 18 42 32 0 4 -6 8 -14 8 -8 0 -18 5 -21 10 -4 6 -1 9 5 8 21 -5 19 28 -3
41 -17 11 -19 11 -14 -2 4 -11 0 -13 -15 -9 -19 5 -20 2 -15 -26 5 -27 3 -32
-12 -32 -11 0 -27 -3 -36 -6 -13 -5 -15 -2 -10 18 6 22 2 26 -33 36 -22 7 -55
12 -74 12 -28 0 -37 5 -41 21 -3 12 -10 18 -16 14 -6 -3 -11 -2 -11 4 0 6 -19
20 -42 32 -28 15 -38 24 -28 27 40 13 98 82 69 82 -5 0 -9 -7 -9 -16 0 -10 -6
-14 -14 -11 -8 3 -24 -5 -37 -19 -28 -30 -38 -30 -69 -1 -14 12 -37 28 -52 36
-16 8 -28 20 -28 28 0 7 -13 16 -29 19 -17 4 -38 15 -47 25 -9 11 -22 19 -28
19 -6 0 -25 14 -43 30 -18 17 -35 30 -38 30 -3 0 -11 5 -18 10 -55 47 -74 61
-89 66 -10 3 -18 14 -18 24 0 13 5 17 15 14 8 -4 15 -1 15 5 0 10 -20 15 -48
12 -7 -1 -11 4 -10 11 2 8 -4 12 -15 10 -25 -4 -79 22 -108 53 -13 13 -29 25
-36 25 -7 0 -10 6 -8 13 2 6 -7 21 -22 31 l-26 19 6 -22 c5 -21 4 -22 -12 -7
-10 9 -22 16 -28 16 -5 0 -18 9 -28 20 -10 11 -23 20 -30 20 -17 0 -98 60 -91
68 4 3 -17 16 -45 29 -29 14 -77 43 -108 66 -31 23 -100 71 -153 107 -56 38
-96 70 -93 78 3 7 -5 12 -20 12 -27 0 -29 3 -39 43 -6 24 -3 30 14 34 33 9 23
21 -20 25 -33 3 -40 0 -40 -14 0 -10 -6 -18 -13 -18 -22 0 -99 60 -104 81 -3
11 -10 18 -17 17 -17 -4 -76 53 -76 73 0 15 4 17 23 10 12 -5 21 -16 21 -24
-2 -17 46 -19 58 -2 5 6 8 4 8 -5 0 -12 2 -13 9 -1 11 17 111 52 133 45 20 -6
34 14 19 29 -18 18 -13 37 11 37 17 0 19 3 10 12 -17 17 -15 33 3 18 12 -10
22 -4 56 34 23 25 47 46 53 46 6 0 24 14 40 30 l29 30 -24 1 c-13 1 -27 1 -31
0 -17 -2 -6 19 19 39 l28 22 -23 18 c-12 10 -27 20 -33 22 -5 2 -7 11 -3 21 7
19 24 17 78 -9 39 -19 62 -19 47 -1 -6 8 -8 17 -4 20 3 4 -2 7 -13 7 -16 1
-15 3 6 15 l25 15 -27 -6 c-22 -5 -28 -2 -28 10 0 9 5 16 11 16 5 0 7 4 4 10
-3 5 3 15 15 22 23 15 28 40 5 32 -21 -8 -65 29 -55 46 4 7 6 20 2 28 -6 16
-42 56 -45 50 -16 -32 -28 -44 -46 -46 -11 -2 -21 1 -21 6 0 20 12 42 24 42
14 0 38 37 28 43 -4 3 -24 7 -44 11 -36 7 -73 40 -62 58 3 4 1 8 -5 8 -5 0
-11 -6 -14 -12 -4 -10 -7 -10 -17 -1 -11 10 -8 14 13 22 15 6 34 8 44 4 11 -4
14 -3 9 5 -4 7 -16 12 -27 12 -10 0 -19 5 -19 10 0 6 -11 16 -25 22 -14 6 -25
16 -25 22 0 7 -14 24 -31 39 -17 15 -27 27 -23 27 5 0 -7 8 -26 19 -25 13 -37
15 -42 7 -5 -6 -8 0 -8 15 0 17 -8 30 -25 39 -29 16 -32 26 -7 33 9 2 26 8 37
12 16 7 18 6 8 -6 -19 -20 -16 -24 19 -24 32 0 45 16 87 100 9 19 10 19 10 -3
1 -20 3 -21 21 -10 11 7 20 16 20 21 0 7 -41 27 -69 33 -7 1 -28 19 -46 38
-18 20 -42 36 -53 36 -24 0 -36 59 -22 109 11 38 -2 71 -27 71 -11 0 -14 6
-10 21 5 19 2 20 -31 14 -30 -5 -42 -2 -60 15 -12 11 -22 26 -22 31 0 6 -8 23
-19 37 -25 37 -23 62 8 96 18 19 22 30 14 33 -19 7 -16 69 4 89 10 9 33 23 52
31 31 13 33 16 19 27 -13 10 -16 22 -11 49 5 36 5 37 -27 37 l-32 0 7 47 c4
26 13 52 21 58 11 8 12 18 3 50 -6 22 -16 43 -21 46 -6 4 -7 16 -3 28 5 18 14
21 65 21 32 0 62 -4 65 -10 3 -5 1 -10 -4 -10 -6 0 -11 -9 -11 -19 0 -11 -8
-22 -18 -24 -16 -4 -16 -5 1 -6 9 0 17 -7 17 -15 0 -8 8 -16 17 -18 14 -3 12
-7 -12 -20 -16 -9 -40 -27 -53 -41 -21 -23 -22 -25 -5 -31 15 -6 15 -8 3 -16
-11 -7 -6 -10 18 -10 29 0 32 3 27 19 -12 38 88 69 115 36 17 -21 39 -19 61 7
11 11 22 18 27 13 4 -4 1 -10 -5 -12 -7 -3 -13 -12 -13 -20 0 -11 7 -14 25
-11 33 7 39 -5 15 -27 -14 -13 -28 -16 -55 -11 -19 4 -35 11 -35 16 0 17 -67
4 -95 -18 -15 -12 -34 -22 -41 -22 -8 0 -14 -11 -14 -25 0 -35 26 -32 62 6 23
24 32 28 43 19 8 -6 12 -17 9 -24 -4 -9 10 -12 50 -12 30 1 52 -2 49 -6 -2 -5
5 -8 17 -8 12 0 18 -4 15 -10 -3 -5 -1 -10 4 -10 6 0 11 4 11 9 0 18 41 19 58
2 9 -10 47 -24 85 -31 53 -10 67 -16 62 -27 -4 -12 1 -14 19 -11 40 8 52 -6
28 -32 -18 -19 -24 -21 -37 -10 -8 7 -15 10 -15 6 0 -3 -11 -1 -24 4 -13 4
-27 5 -32 1 -5 -5 -44 -5 -86 0 -91 10 -140 -1 -114 -26 8 -8 25 -15 38 -15
l23 -1 -22 -18 c-29 -24 -29 -31 -2 -31 19 0 20 -2 8 -16 -11 -14 -10 -18 6
-27 11 -6 32 -12 46 -13 22 -1 27 3 27 23 0 29 25 51 30 27 2 -8 -1 -21 -7
-28 -8 -10 -6 -17 7 -28 31 -26 74 -50 80 -44 3 3 14 -1 24 -11 15 -14 25 -15
65 -6 56 13 63 11 64 -25 0 -26 1 -26 9 -4 5 12 12 22 14 22 3 0 3 -7 0 -15
-7 -16 6 -19 42 -9 15 4 20 11 17 25 -4 13 0 19 12 19 15 0 15 2 5 16 -10 11
-23 14 -53 8 -29 -4 -38 -3 -32 5 9 15 -47 3 -57 -12 -4 -7 -12 -6 -23 3 -13
11 -15 11 -13 0 4 -19 -18 -24 -26 -5 -4 10 2 19 18 24 31 13 99 78 87 85 -5
3 -17 3 -27 -1 -12 -4 -15 -3 -10 5 4 7 11 12 17 12 22 0 98 43 93 52 -4 6 1
8 13 4 13 -4 26 1 38 14 10 11 13 20 7 20 -6 0 -14 -5 -17 -10 -4 -6 -10 -8
-15 -5 -5 3 -23 -1 -39 -10 -37 -19 -41 -19 -41 -1 0 8 7 17 15 20 12 4 13 10
6 25 -13 23 -5 31 28 31 19 0 22 3 13 12 -8 8 -18 9 -35 1 -30 -14 -51 -2 -43
25 5 14 13 18 26 15 11 -3 17 -9 14 -14 -11 -18 23 -8 41 11 18 19 17 20 -3
20 -26 0 -29 15 -4 29 9 5 15 11 13 13 -2 2 -1 13 3 26 6 17 1 32 -18 56 -22
30 -23 35 -9 40 32 13 4 17 -38 6 -32 -8 -51 -8 -69 0 -23 10 -23 10 -2 6 26
-5 89 10 97 24 4 6 -4 14 -16 19 l-23 8 21 11 c24 13 53 6 53 -12 0 -6 4 -5 9
3 15 23 -14 37 -74 35 -42 -2 -55 1 -55 12 0 8 9 14 20 14 11 0 20 -4 20 -9 0
-5 9 -7 20 -4 10 3 19 8 18 12 -2 18 3 31 13 31 6 0 9 -7 5 -15 -6 -17 11 -20
34 -5 11 7 11 10 2 10 -7 0 -10 5 -7 10 3 5 0 10 -7 10 -12 0 5 12 60 41 28
16 43 2 18 -17 -22 -16 -15 -19 12 -5 9 5 35 17 57 28 30 14 41 26 43 46 3 22
8 27 32 27 16 0 41 -5 57 -10 25 -9 26 -8 10 4 -23 18 -6 31 48 39 22 3 56 9
75 12 34 7 35 6 34 -26 0 -18 -6 -35 -13 -37 -8 -3 -5 -9 8 -19 12 -8 21 -21
21 -30 0 -9 7 -25 16 -35 10 -10 18 -32 19 -50 3 -27 1 -30 -9 -17 -15 21 -53
33 -61 19 -3 -5 -15 -10 -25 -10 -29 0 -34 -19 -11 -39 12 -10 21 -25 21 -32
0 -11 2 -11 10 1 8 13 11 13 27 -2 11 -11 13 -18 5 -18 -18 0 -14 -18 6 -23 9
-3 -1 -5 -23 -4 -22 0 -54 -7 -72 -16 -38 -20 -59 -21 -67 -4 -3 9 -9 7 -19
-5 -8 -10 -28 -18 -44 -18 -17 0 -36 -7 -43 -15 -11 -13 -8 -15 16 -15 22 0
25 -3 14 -9 -8 -6 -19 -7 -25 -3 -5 3 -4 -1 3 -10 14 -17 7 -68 -10 -68 -5 0
-7 -4 -4 -9 4 -5 17 -8 31 -6 26 2 36 -19 13 -28 -8 -3 -5 -6 5 -6 10 -1 15
-6 12 -11 -4 -6 6 -10 23 -10 28 0 51 -24 37 -38 -3 -3 -5 -1 -5 5 0 5 -14 10
-32 11 -22 0 -28 -2 -18 -8 10 -6 6 -9 -15 -12 -16 -2 -30 -9 -33 -16 -3 -10
1 -12 14 -5 25 11 64 10 64 -2 1 -6 -8 -11 -19 -13 -11 -2 -22 -10 -25 -18 -4
-11 0 -13 18 -8 18 4 27 0 36 -15 6 -12 21 -21 33 -21 12 0 33 -7 45 -16 13
-9 29 -13 37 -10 9 3 12 0 9 -9 -3 -7 3 -16 15 -20 14 -4 18 -11 14 -23 -6
-15 -5 -15 11 -3 15 13 19 13 26 1 6 -10 4 -17 -5 -23 -8 -4 -17 -24 -21 -45
-13 -72 -37 -93 -54 -47 -7 20 -6 32 6 50 15 24 15 25 -11 35 -36 14 -36 14
-25 -16 6 -14 10 -26 10 -28 0 -1 -9 -2 -20 -3 -11 -1 -20 4 -20 12 0 8 -5 17
-12 21 -7 5 -8 3 -3 -7 7 -11 6 -11 -9 1 -14 11 -15 15 -4 20 7 3 13 18 13 33
1 25 -1 27 -11 12 -14 -19 -36 -12 -28 8 6 15 -32 20 -57 7 -19 -11 -34 11
-19 26 15 15 -1 54 -21 54 -23 0 -36 -20 -19 -30 17 -11 3 -30 -22 -30 -12 0
-18 -3 -15 -7 4 -3 -1 -12 -11 -20 -16 -14 -16 -14 3 -8 54 20 60 18 78 -24
18 -40 16 -81 -4 -81 -6 0 -8 -4 -5 -9 7 -10 56 9 56 22 0 18 31 5 47 -20 10
-16 22 -31 27 -34 11 -8 -1 -29 -17 -29 -7 0 -21 -13 -30 -30 -12 -20 -31 -33
-56 -40 -21 -5 -45 -18 -52 -28 -11 -14 -11 -15 1 -4 16 14 40 16 40 3 0 -11
-38 -24 -65 -22 -18 1 -18 0 5 -20 17 -15 21 -23 12 -26 -7 -3 -26 -16 -42
-30 -26 -21 -31 -22 -36 -9 -9 22 -34 20 -34 -3 0 -25 29 -31 58 -13 12 8 31
12 42 9 11 -3 32 5 50 18 l30 22 -22 15 -23 15 35 21 c25 16 37 18 47 11 10
-9 8 -15 -10 -31 -20 -18 -18 -17 16 2 32 19 37 19 37 5 0 -9 5 -13 11 -10 6
4 13 -2 16 -14 3 -11 9 -18 14 -15 5 3 7 10 3 15 -3 6 1 18 9 27 9 9 16 21 16
27 -1 21 21 15 22 -7 1 -12 2 -27 4 -33 1 -5 3 -16 3 -22 1 -7 8 -13 16 -13 9
0 12 7 9 20 -4 15 0 20 17 20 12 0 28 -6 36 -14 12 -13 12 -16 -1 -23 -13 -8
-13 -12 -2 -27 13 -17 15 -17 46 2 30 18 35 18 62 5 16 -8 29 -18 29 -23 0 -4
9 -6 20 -3 13 4 29 -3 46 -20 14 -14 35 -27 47 -29 21 -4 21 -5 -3 -17 -31
-15 -96 3 -70 19 12 8 9 10 -10 10 -15 0 -31 5 -37 11 -6 6 -19 9 -29 7 -15
-3 -12 -7 13 -18 27 -12 31 -19 26 -39 -5 -22 -4 -23 28 -18 19 2 50 -2 69
-10 20 -8 46 -11 60 -7 l25 6 -22 11 c-23 10 -31 27 -13 27 6 0 10 7 10 15 0
10 10 15 28 15 15 0 33 5 40 12 8 8 28 7 79 -7 37 -10 70 -22 73 -26 3 -4 30
-16 60 -26 77 -26 79 -46 4 -40 -33 3 -72 8 -89 11 -28 6 -27 5 9 -15 31 -16
49 -20 83 -15 24 3 51 2 61 -3 9 -5 50 -20 91 -32 40 -13 76 -29 78 -36 3 -7
11 -13 18 -13 6 0 20 -9 30 -20 18 -19 17 -20 -5 -20 -19 0 -20 -2 -10 -15 10
-12 10 -15 0 -15 -7 0 -19 8 -26 17 -8 11 -13 13 -14 6 0 -7 -8 -13 -17 -13
-15 0 -16 2 -3 10 11 7 9 11 -13 19 -16 6 -43 11 -62 11 -19 0 -46 5 -62 11
-33 12 -163 2 -163 -13 0 -7 18 -9 46 -5 30 3 56 0 76 -10 16 -9 42 -16 56
-17 66 -4 132 -64 94 -85 -12 -7 -6 -12 29 -21 24 -6 58 -16 76 -21 18 -6 42
-12 55 -14 12 -3 44 -18 70 -34 26 -16 59 -31 75 -33 15 -1 31 -7 35 -12 4 -6
12 -5 20 2 9 7 18 8 24 3 5 -5 25 -11 44 -14 56 -8 151 -35 166 -48 9 -7 58
-13 117 -15 140 -4 191 -12 176 -31 -7 -7 -10 -15 -8 -17 2 -2 67 -15 143 -29
107 -19 146 -23 168 -15 21 8 41 7 70 -1 37 -12 59 -9 45 5 -3 3 -36 14 -74
24 -37 10 -67 21 -65 26 2 5 14 15 27 23 19 12 31 12 62 4 21 -6 64 -18 95
-27 32 -9 60 -21 63 -26 4 -6 25 -10 48 -10 31 0 38 3 27 10 -20 12 -5 38 38
65 39 25 40 34 2 33 -21 -1 -30 -6 -30 -18 0 -24 -27 -29 -91 -18 -30 5 -80 9
-111 8 -44 0 -58 3 -58 14 0 8 6 17 13 19 7 3 4 6 -6 6 -10 1 -33 -10 -50 -23
-33 -24 -69 -26 -172 -11 -49 8 -73 8 -102 0 -33 -8 -28 5 14 42 21 18 29 30
19 26 -16 -5 -18 -3 -13 12 6 14 5 16 -6 7 -7 -6 -43 -13 -80 -14 -64 -3 -67
-4 -67 -28 0 -18 3 -21 9 -11 5 7 11 9 14 4 12 -19 -10 -29 -68 -30 -57 -2
-134 21 -135 40 0 10 14 9 26 -3 6 -6 19 -4 38 5 20 11 38 12 67 6 36 -8 38
-7 28 10 -6 13 -6 19 1 19 5 0 10 7 10 15 0 8 -8 15 -17 15 -10 0 -29 9 -42
19 -14 10 -31 17 -38 14 -9 -3 -16 3 -20 16 -4 15 -13 21 -34 21 -15 0 -36 8
-46 18 -10 11 -26 22 -35 25 -10 4 -18 12 -18 18 0 13 69 3 85 -12 5 -5 22 -9
37 -9 15 0 28 -4 28 -9 0 -5 12 -13 28 -18 82 -29 100 -35 130 -45 19 -5 53
-20 77 -34 24 -13 51 -21 59 -18 9 3 16 1 16 -5 0 -6 3 -10 8 -9 4 1 20 -4 36
-11 16 -6 32 -9 35 -5 9 8 -29 34 -51 34 -10 0 -18 5 -18 10 0 17 43 11 98
-15 52 -24 99 -25 50 -1 -12 6 -27 21 -33 34 -7 16 -18 22 -42 22 -44 0 -63 9
-63 31 0 12 7 19 20 19 11 0 20 6 20 14 0 21 25 27 62 14 50 -16 57 -28 18
-29 -19 -1 -42 0 -50 1 -13 1 -13 -1 1 -15 9 -9 46 -20 85 -26 38 -6 108 -17
155 -25 95 -15 183 -19 175 -6 -3 5 6 21 19 36 21 24 27 27 40 16 13 -11 14
-8 9 17 -5 26 -2 31 18 37 22 7 22 7 3 16 -39 17 23 11 117 -11 82 -19 138
-20 138 -1 0 5 -53 16 -117 27 -65 10 -126 22 -137 28 -17 8 -16 11 13 38 32
28 32 29 8 29 -27 0 -62 -33 -52 -49 3 -6 3 -11 -2 -11 -4 -1 -25 -3 -47 -6
-26 -4 -36 -3 -32 5 5 8 -11 11 -51 11 -58 0 -119 16 -145 37 -7 7 -47 14 -88
16 -79 5 -135 21 -125 36 7 12 158 1 166 -11 3 -5 23 -11 45 -14 21 -2 55 -9
74 -14 21 -6 38 -6 44 0 5 5 -6 11 -28 15 -20 4 -34 11 -31 15 2 4 -17 10 -44
14 -43 6 -61 18 -61 42 0 2 18 4 40 4 28 0 40 -4 40 -14 0 -9 12 -16 33 -18
19 -2 31 -8 29 -15 -2 -12 28 -19 53 -13 6 1 19 5 30 8 16 4 18 2 7 -9 -6 -7
-12 -16 -12 -21 0 -9 33 2 41 15 4 5 21 12 39 16 19 3 35 11 37 16 4 14 -45
35 -84 35 -25 0 -31 4 -27 15 4 8 19 15 34 15 16 0 32 5 35 10 4 6 -12 10 -39
10 -26 0 -46 -5 -46 -11 0 -5 -5 -7 -12 -3 -6 4 -27 9 -47 11 -19 2 -41 9 -48
15 -26 21 -13 30 35 24 75 -9 273 -20 316 -18 33 1 36 0 26 -13 -15 -18 1 -20
19 -2 11 10 13 10 7 0 -5 -9 0 -13 14 -13 12 0 18 5 15 10 -3 6 -1 10 4 10 6
0 11 5 11 10 0 6 -18 10 -40 10 -22 0 -40 5 -40 10 0 6 -11 8 -26 4 -15 -4
-25 -3 -21 2 3 5 -15 9 -39 9 -24 0 -44 2 -44 5 0 3 -21 6 -48 7 -78 3 -305
33 -337 45 -50 17 -127 40 -170 49 -29 6 -16 7 49 4 49 -2 97 0 107 6 11 5 19
6 19 1 0 -5 21 -12 48 -15 26 -4 85 -14 132 -24 88 -18 327 -27 350 -13 8 5
-11 15 -50 28 -50 16 -69 18 -101 9 -29 -7 -43 -7 -52 2 -6 6 -34 11 -61 11
-45 0 -192 32 -204 44 -2 3 -1 9 2 15 8 12 196 3 211 -10 5 -5 31 -9 58 -9 42
0 53 4 75 30 28 32 52 39 52 16 0 -8 -11 -18 -25 -23 -25 -8 -23 -29 5 -33 27
-4 96 2 78 7 -21 5 -24 23 -4 23 8 0 17 6 19 13 4 9 6 9 6 0 1 -7 6 -13 12
-13 5 0 7 5 3 12 -5 8 -2 9 9 5 10 -4 16 -2 14 6 -1 7 3 11 10 10 6 -1 35 -5
64 -7 63 -6 139 -27 139 -39 0 -4 -6 -5 -12 -1 -10 5 -10 4 -1 -6 7 -8 57 -27
110 -42 97 -29 204 -46 463 -73 139 -15 183 -23 235 -45 17 -7 57 -21 90 -32
51 -15 54 -18 20 -14 -35 5 -38 3 -22 -8 16 -12 16 -14 1 -20 -8 -3 -33 -6
-54 -6 -29 0 -42 5 -50 20 -8 16 -21 20 -58 20 -26 1 -58 7 -72 15 -14 8 -40
14 -58 15 -19 0 -35 6 -38 15 -4 8 -11 12 -16 9 -6 -4 -5 -10 3 -16 17 -11
-104 -5 -211 12 -41 6 -106 8 -144 5 -68 -6 -177 12 -308 51 -53 16 -117 19
-102 5 5 -5 22 -11 38 -13 16 -2 32 -9 34 -17 3 -10 0 -12 -11 -8 -9 3 -19 1
-23 -5 -5 -8 6 -9 39 -5 30 4 60 1 88 -8 23 -8 52 -15 66 -15 14 0 21 -4 18
-10 -4 -6 5 -10 20 -10 14 0 24 3 22 8 -3 4 45 7 106 6 94 0 120 -4 161 -22
28 -13 57 -20 68 -16 32 10 110 11 143 3 17 -4 68 -16 115 -25 53 -10 92 -23
103 -35 11 -12 32 -19 53 -19 47 0 40 -22 -10 -34 -22 -6 -35 -14 -32 -22 7
-17 -22 -26 -44 -14 -24 13 -40 13 -40 0 0 -5 6 -10 14 -10 8 0 18 -6 22 -12
4 -7 4 -10 -1 -6 -13 13 -45 -11 -38 -29 6 -14 -2 -15 -68 -9 -41 3 -139 10
-219 16 -80 5 -162 12 -184 16 -30 5 -38 4 -34 -6 2 -7 16 -14 31 -16 14 -1
64 -11 109 -20 55 -12 129 -18 215 -18 73 -1 133 -3 133 -5 0 -8 -51 -50 -67
-55 -10 -3 -33 -2 -51 3 -39 12 -50 -1 -17 -19 27 -14 31 -25 15 -35 -6 -4 -8
-11 -5 -16 4 -5 -5 -14 -19 -21 -14 -6 -26 -16 -26 -22 0 -14 -56 -46 -81 -46
-21 0 -26 -16 -6 -23 8 -3 7 -10 -7 -23 -10 -11 -16 -14 -13 -9 3 6 -34 -28
-81 -75 -48 -47 -102 -96 -120 -110 -19 -14 -54 -44 -79 -67 -26 -24 -56 -43
-67 -43 -14 0 -17 -3 -9 -8 9 -6 1 -17 -27 -38 -22 -16 -40 -32 -40 -36 0 -11
-29 -39 -85 -82 -38 -28 -55 -36 -74 -31 -21 5 -23 4 -12 -9 11 -13 9 -19 -12
-38 -57 -53 -86 -76 -104 -82 -10 -3 -24 -19 -31 -35 -7 -17 -39 -46 -75 -70
-73 -48 -97 -69 -97 -88 0 -10 -7 -12 -20 -8 -16 5 -20 2 -20 -14 0 -22 -9
-32 -75 -89 -25 -21 -45 -32 -58 -28 -13 3 -17 0 -13 -10 3 -8 1 -14 -5 -14
-5 0 -20 -11 -33 -25 -13 -14 -28 -25 -34 -25 -6 0 -14 -10 -17 -21 -6 -17 -9
-19 -16 -8 -7 11 -9 10 -9 -4 0 -10 -12 -29 -27 -43 -16 -14 -77 -71 -136
-127 -60 -56 -116 -106 -125 -111 -9 -5 -29 -20 -44 -34 -24 -22 -29 -23 -44
-11 -16 13 -17 12 -11 -11 5 -20 -2 -32 -31 -61 -58 -56 -104 -90 -115 -86
-11 3 -38 -23 -79 -77 -17 -22 -110 -76 -133 -76 -2 0 -3 11 -2 24 3 36 -15
35 -38 -1 -27 -43 -37 -41 -29 6 7 44 -12 67 -22 26 -4 -16 -13 -25 -25 -25
-29 0 -34 4 -32 23 3 20 -13 23 -21 5 -3 -10 -9 -8 -19 4 -8 10 -17 15 -20 11
-4 -3 -13 0 -21 6 -12 10 -16 6 -22 -21 -4 -18 -7 -40 -5 -47 2 -12 0 -12 -12
-3 -7 6 -17 9 -21 5 -4 -4 -9 3 -13 15 -8 31 -28 28 -31 -4 -3 -36 16 -58 34
-43 8 6 27 9 44 6 31 -7 51 7 25 17 -18 6 -20 32 -4 42 6 3 15 1 19 -6 6 -10
8 -10 12 0 2 7 4 -13 4 -45 0 -46 -2 -53 -12 -40 -8 10 -23 15 -41 13 -23 -2
-27 -7 -25 -26 3 -21 0 -23 -20 -17 -22 6 -22 6 -4 -9 12 -10 22 -12 26 -6 3
5 28 8 55 7 38 -2 54 2 69 17 15 15 21 17 24 6 3 -7 -3 -19 -12 -25 -9 -7 -16
-17 -16 -23 0 -7 -19 -9 -56 -5 l-57 6 19 -32 c10 -17 24 -29 31 -27 7 3 13 1
13 -4 0 -6 -7 -10 -15 -10 -8 0 -15 -4 -15 -10 0 -5 5 -10 10 -10 6 0 10 -10
10 -22 0 -19 -2 -20 -10 -8 -5 8 -14 16 -20 16 -5 1 -11 2 -12 3 -2 2 -13 4
-25 7 -29 5 -38 -23 -13 -38 41 -26 14 -52 -40 -41 -17 3 -30 9 -30 14 0 5 14
6 30 3 19 -4 30 -2 30 5 0 6 -9 11 -19 11 -11 0 -22 6 -25 13 -5 9 -7 9 -12
-2 -14 -29 -45 -51 -74 -51 -16 0 -30 -4 -30 -10 0 -7 997 -10 2970 -10 l2970
0 0 3415 0 3415 -5120 0 -5120 0 0 -3415z m6330 1366 c-8 -5 -53 -16 -100 -25
-47 -8 -202 -38 -345 -65 -143 -28 -361 -69 -485 -91 -124 -22 -283 -51 -355
-65 -193 -36 -336 -57 -343 -51 -3 3 3 6 13 6 9 0 72 13 139 29 66 16 207 46
311 66 105 20 217 42 250 50 33 7 87 16 120 19 33 2 71 9 85 14 14 5 48 12 75
16 28 4 70 11 95 16 25 6 90 17 145 26 55 8 120 22 145 30 25 8 90 18 145 23
55 4 105 9 110 9 6 1 3 -2 -5 -7z m500 -61 c10 -7 1 -8 -30 -4 -56 8 -64 14
-19 14 19 0 41 -5 49 -10z m720 -75 c0 -17 16 -20 25 -5 6 10 35 3 33 -8 -3
-26 5 -33 30 -30 29 3 33 23 5 23 -9 0 -18 6 -21 13 -3 9 10 12 47 11 53 -2
63 -11 34 -28 -16 -9 -16 -12 -3 -21 8 -6 22 -9 31 -6 23 5 43 -9 36 -26 -4
-11 -25 -14 -98 -11 -52 2 -109 5 -126 6 -18 2 -33 -1 -33 -6 0 -4 -5 -5 -11
-2 -6 4 -8 13 -5 20 3 9 -2 11 -15 8 -12 -3 -18 -11 -15 -19 9 -24 -9 -15 -20
11 -16 33 1 46 49 38 30 -4 37 -3 37 11 0 10 -8 16 -22 16 -19 0 -20 2 -8 10
23 15 50 12 50 -5z m214 -14 c3 -5 0 -11 -8 -14 -15 -6 -26 1 -26 15 0 11 27
10 34 -1z m101 -11 c4 -6 -5 -10 -19 -10 -14 0 -26 5 -26 10 0 6 9 10 19 10
11 0 23 -4 26 -10z m-45 -38 c0 -4 -9 -13 -20 -20 -22 -13 -23 -12 -14 12 6
16 34 23 34 8z m-315 -52 c3 -5 -1 -10 -10 -10 -9 0 -13 5 -10 10 3 6 8 10 10
10 2 0 7 -4 10 -10z m1390 -39 c17 -7 16 -8 -9 -13 -34 -7 -68 1 -60 13 6 11
41 11 69 0z m-4273 -83 c-23 -8 -39 -8 -55 0 -19 9 -13 11 33 10 53 0 54 -1
22 -10z m33 -138 c-11 -5 -27 -9 -35 -9 -9 0 -8 4 5 9 11 5 27 9 35 9 9 0 8
-4 -5 -9z m58 -7 c-7 -2 -19 -2 -25 0 -7 3 -2 5 12 5 14 0 19 -2 13 -5z m2384
1 c-3 -3 -12 -4 -19 -1 -8 3 -5 6 6 6 11 1 17 -2 13 -5z m2130 0 c-3 -3 -12
-4 -19 -1 -8 3 -5 6 6 6 11 1 17 -2 13 -5z m-2002 -15 c-4 -5 -20 -9 -36 -9
-39 0 -29 17 11 18 17 0 28 -4 25 -9z m55 -14 c0 -8 -4 -15 -10 -15 -5 0 -7 7
-4 15 4 8 8 15 10 15 2 0 4 -7 4 -15z m107 -9 c2 -2 -9 -7 -26 -11 -35 -8 -61
3 -40 16 13 8 56 5 66 -5z m138 4 c3 -5 -1 -10 -10 -10 -9 0 -13 5 -10 10 3 6
8 10 10 10 2 0 7 -4 10 -10z m-2445 -43 c8 0 22 3 30 6 8 4 22 2 30 -3 13 -8
13 -11 -1 -25 -16 -17 -69 -12 -69 6 0 5 -14 9 -31 9 -18 0 -28 4 -24 10 4 6
16 8 28 4 12 -4 29 -7 37 -7z m2370 -12 c0 -3 -3 -4 -7 -3 -5 0 -16 -2 -25 -6
-9 -4 -28 -1 -45 8 l-28 15 33 -6 c21 -3 32 -2 32 6 0 9 5 9 20 1 11 -6 20
-13 20 -15z m-570 -6 c0 -6 9 -9 20 -6 11 3 20 1 20 -4 0 -5 -4 -9 -10 -9 -5
0 -10 -6 -10 -14 0 -8 -6 -17 -12 -19 -14 -6 18 -10 102 -13 30 -1 85 -5 121
-9 42 -5 73 -4 85 3 18 10 18 11 -3 19 -12 4 -22 13 -23 18 0 11 -3 11 -70 15
-28 2 -35 4 -20 7 14 2 35 9 48 15 15 8 26 9 30 2 4 -5 33 -18 65 -28 44 -13
57 -21 53 -32 -3 -8 -2 -12 3 -9 5 3 12 1 16 -5 9 -14 -44 -32 -77 -27 -16 2
-28 1 -28 -3 0 -7 -135 -4 -148 4 -5 3 -35 8 -68 11 -101 9 -144 17 -138 26 3
5 -1 9 -9 9 -8 0 -22 9 -32 20 -18 19 -17 20 3 20 11 0 24 5 27 10 8 14 55 13
55 -1z m143 4 c-13 -2 -35 -2 -50 0 -16 2 -5 4 22 4 28 0 40 -2 28 -4z m-303
-13 c0 -5 -4 -10 -10 -10 -5 0 -10 5 -10 10 0 6 5 10 10 10 6 0 10 -4 10 -10z
m-1880 -40 c0 -5 -15 -10 -32 -10 -25 0 -29 3 -18 10 20 13 50 13 50 0z m240
-10 c0 -5 -12 -8 -27 -8 -16 0 -32 -1 -38 -2 -5 -2 -19 1 -30 6 -17 8 -15 9
15 14 41 6 80 1 80 -10z m235 10 c-3 -5 -14 -10 -23 -9 -14 0 -13 2 3 9 27 11
27 11 20 0z m-205 -20 c0 -5 -2 -10 -4 -10 -3 0 -8 5 -11 10 -3 6 -1 10 4 10
6 0 11 -4 11 -10z m-1642 -87 c1 -59 -13 -113 -30 -113 -5 0 -7 4 -3 9 3 5 -5
11 -17 13 -23 4 -23 4 3 17 24 12 26 16 17 50 -5 20 -10 43 -11 51 -1 8 -6 18
-12 22 -5 4 4 8 21 8 31 0 31 0 32 -57z m1688 40 c4 -10 6 -22 5 -27 -1 -4 4
-16 11 -25 12 -14 11 -14 -4 -3 -13 10 -22 11 -38 2 -12 -6 -28 -9 -35 -6 -7
2 -15 -4 -18 -14 -6 -23 9 -29 46 -19 20 6 27 4 27 -7 0 -8 -7 -14 -15 -14 -8
0 -15 -5 -15 -11 0 -6 -7 -3 -16 5 -10 11 -24 14 -41 10 -19 -5 -30 -2 -40 11
-7 11 -13 15 -13 9 0 -5 -24 -9 -53 -10 -28 -1 -42 1 -29 3 12 3 22 8 22 13 0
4 6 8 13 7 87 -3 117 16 45 29 -33 5 -38 8 -24 14 17 6 15 9 -15 20 l-34 14
43 4 c29 2 47 -2 58 -12 19 -19 31 -20 36 -4 3 8 9 4 17 -10 12 -23 45 -30 56
-12 4 6 -5 10 -21 10 -21 0 -24 3 -15 13 6 8 8 17 4 20 -3 4 3 7 14 7 12 0 24
-8 29 -17z m169 -3 c3 -5 1 -10 -4 -10 -6 0 -11 5 -11 10 0 6 2 10 4 10 3 0 8
-4 11 -10z m1583 -17 c23 -9 42 -19 42 -22 0 -8 59 -34 85 -37 11 -1 21 -3 23
-3 2 -1 -3 -8 -11 -16 -12 -12 -21 -12 -47 -4 -17 6 -34 9 -37 5 -9 -9 1 -16
44 -31 l38 -14 -42 -1 c-24 0 -43 -4 -43 -9 0 -6 -12 -4 -26 4 -15 7 -32 11
-39 9 -14 -6 -39 21 -31 35 3 5 15 7 26 4 12 -3 20 0 20 7 0 7 -7 10 -15 6 -8
-3 -15 -1 -15 4 0 6 -27 10 -60 10 -33 0 -60 4 -60 10 0 6 -6 10 -14 10 -7 0
-19 7 -26 16 -8 8 -9 14 -4 13 5 -1 23 -1 39 0 l30 2 -25 14 c-23 14 -21 15
40 9 36 -3 84 -13 108 -21z m45 20 c-7 -2 -19 -2 -25 0 -7 3 -2 5 12 5 14 0
19 -2 13 -5z m-253 -13 c0 -13 -11 -13 -30 0 -12 8 -11 10 8 10 12 0 22 -4 22
-10z m-92 -14 c2 -3 -7 -10 -22 -15 -27 -11 -56 -5 -56 10 0 5 -4 9 -10 9 -12
0 0 -32 18 -46 18 -13 81 -17 96 -6 18 15 66 23 66 12 0 -5 11 -10 25 -10 20
0 25 -5 25 -25 0 -14 -5 -25 -11 -25 -5 0 -7 5 -4 10 3 6 -4 10 -17 10 -16 0
-19 -3 -10 -9 11 -6 10 -10 -4 -15 -14 -6 -16 -9 -5 -15 8 -6 9 -11 3 -15 -14
-9 -192 16 -186 26 3 4 -9 8 -26 8 -18 0 -29 4 -25 10 3 6 1 10 -5 10 -17 0
-35 22 -42 48 -5 19 -4 21 8 11 8 -6 26 -13 39 -15 22 -2 24 1 19 23 l-7 25
63 -6 c34 -3 65 -7 68 -10z m66 -7 c-8 -13 -21 -11 -27 5 -4 10 0 12 14 9 10
-3 16 -9 13 -14z m-3574 1 c-20 -13 -63 -13 -55 0 3 6 21 10 38 10 24 0 28 -3
17 -10z m4093 3 c-7 -2 -19 -2 -25 0 -7 3 -2 5 12 5 14 0 19 -2 13 -5z m-2387
-15 c4 -7 3 -8 -5 -4 -6 4 -14 1 -16 -6 -3 -8 -21 -14 -40 -15 -19 -1 -32 3
-29 8 3 5 14 9 24 9 10 0 22 5 25 10 8 14 32 13 41 -2z m478 3 c14 -5 16 -10
8 -15 -7 -4 -22 0 -34 8 -24 17 -9 21 26 7z m-344 -37 c0 -2 -9 -4 -21 -4 -11
0 -18 4 -14 10 5 8 35 3 35 -6z m324 10 c23 -9 20 -23 -4 -17 -11 3 -20 9 -20
14 0 11 3 11 24 3z m-2153 -14 c5 0 9 -11 9 -24 0 -15 7 -26 18 -29 14 -3 13
-6 -8 -15 -20 -8 -21 -11 -6 -11 12 -1 16 -6 12 -17 -3 -9 -6 -18 -6 -20 0 -7
-84 -3 -105 6 -18 7 -19 8 -3 15 13 5 16 14 12 30 -7 27 32 77 54 69 8 -2 18
-4 23 -4z m1629 -10 c-8 -5 -10 -10 -5 -10 6 0 2 -5 -8 -11 -21 -12 -32 -6
-24 13 2 8 15 14 28 15 18 2 20 0 9 -7z m457 -6 c-3 -3 -12 -4 -19 -1 -8 3 -5
6 6 6 11 1 17 -2 13 -5z m-1150 -10 c-3 -3 -12 -4 -19 -1 -8 3 -5 6 6 6 11 1
17 -2 13 -5z m761 -6 c-3 -7 -15 -15 -28 -16 -21 -3 -22 -2 -11 12 16 19 44
21 39 4z m-2684 -7 c6 -9 -49 -21 -101 -21 -18 0 -33 4 -33 9 0 17 125 28 134
12z m3054 -12 c-2 -6 -8 -10 -13 -10 -5 0 -11 4 -13 10 -2 6 4 11 13 11 9 0
15 -5 13 -11z m-148 -24 c0 -8 5 -15 10 -15 6 0 9 6 8 12 -2 7 7 14 20 16 12
2 22 -1 22 -7 0 -6 8 -11 18 -11 14 0 14 -2 3 -9 -12 -8 -12 -14 -4 -33 7 -13
12 -17 12 -10 1 6 8 12 16 12 19 0 19 -9 0 -34 -19 -26 -19 -42 0 -26 12 10
18 9 31 -4 20 -21 17 -24 -26 -27 -42 -2 -80 9 -80 24 0 7 -4 7 -12 -1 -17
-17 -73 -15 -88 3 -10 12 -10 15 1 15 8 1 1 7 -16 15 -28 12 -28 13 -7 14 14
1 22 6 19 14 -2 6 -13 11 -24 10 -11 -1 -20 4 -20 12 0 8 17 16 45 20 32 5 41
9 31 16 -10 6 -7 9 14 9 17 0 27 -5 27 -15z m1170 5 c0 -5 -4 -10 -10 -10 -5
0 -10 5 -10 10 0 6 5 10 10 10 6 0 10 -4 10 -10z m-2014 -19 c-4 -5 0 -12 6
-14 7 -3 -1 -6 -19 -6 -35 -1 -53 15 -26 22 31 8 44 7 39 -2z m-763 -8 c-7 -2
-19 -2 -25 0 -7 3 -2 5 12 5 14 0 19 -2 13 -5z m1304 1 c-3 -3 -12 -4 -19 -1
-8 3 -5 6 6 6 11 1 17 -2 13 -5z m82 -5 c-18 -11 -39 -11 -39 0 0 5 12 9 26 9
18 0 22 -3 13 -9z m1481 1 c0 -5 -5 -10 -12 -10 -8 0 -9 -3 -1 -11 5 -5 34
-13 64 -16 30 -3 61 -11 69 -18 8 -7 30 -11 49 -10 18 2 52 -3 75 -11 l41 -14
-65 4 -65 3 45 -14 c25 -7 53 -12 62 -9 10 2 23 -6 32 -19 21 -31 9 -35 -110
-35 -89 0 -127 -13 -66 -23 15 -3 -22 -3 -83 -1 -60 1 -137 3 -170 4 -48 0
-56 3 -41 11 10 6 36 9 57 6 25 -3 37 -1 33 5 -5 7 21 8 77 4 68 -6 80 -4 65
5 -11 7 -47 11 -82 10 -34 -1 -81 3 -103 9 -44 12 -80 3 -45 -11 18 -7 18 -8
1 -8 -11 -1 -31 8 -45 20 -17 13 -34 18 -49 14 -13 -3 -23 -1 -23 5 0 5 7 10
15 10 8 0 15 5 15 11 0 14 93 2 98 -12 4 -11 23 -12 20 -1 -6 16 41 62 62 62
17 0 20 4 15 19 -4 15 0 21 17 24 41 8 48 7 48 -3z m238 -7 c-10 -2 -26 -2
-35 0 -10 3 -2 5 17 5 19 0 27 -2 18 -5z m-2481 -9 c-3 -3 -12 -4 -19 -1 -8 3
-5 6 6 6 11 1 17 -2 13 -5z m846 -37 c-4 -6 -10 -2 -14 9 -12 31 -9 40 6 20 8
-10 11 -24 8 -29z m1527 33 c0 -12 -8 -12 -35 0 -18 8 -17 9 8 9 15 1 27 -3
27 -9z m-2890 -20 c-11 -7 -7 -10 18 -10 17 0 32 -4 32 -9 0 -5 17 -14 38 -20
32 -9 27 -10 -38 -5 -41 3 -109 8 -150 10 -41 3 -81 7 -88 9 -7 3 -15 -2 -18
-10 -4 -8 -15 -15 -27 -15 -19 0 -19 1 -3 19 11 12 32 19 59 20 23 1 69 5 102
10 90 13 93 13 75 1z m1255 -8 c0 -18 -20 -15 -23 4 -3 10 1 15 10 12 7 -3 13
-10 13 -16z m-1535 -2 c0 -5 -4 -10 -10 -10 -5 0 -10 5 -10 10 0 6 5 10 10 10
6 0 10 -4 10 -10z m853 -13 c-3 -14 -12 -23 -24 -24 -20 -2 -26 12 -9 22 6 4
8 11 5 16 -4 5 2 9 13 9 15 0 18 -5 15 -23z m67 13 c11 -7 11 -10 2 -10 -7 0
-10 -5 -6 -11 4 -8 0 -7 -15 1 -12 6 -19 15 -16 21 8 11 16 11 35 -1z m580
-15 c0 -8 5 -15 12 -15 6 0 9 -2 6 -5 -3 -3 -13 -3 -22 1 -17 7 -22 34 -6 34
6 0 10 -7 10 -15z m-3090 -5 c0 -5 -8 -10 -17 -10 -15 0 -16 2 -3 10 19 12 20
12 20 0z m3877 -6 c-3 -3 -12 -4 -19 -1 -8 3 -5 6 6 6 11 1 17 -2 13 -5z
m-2433 -20 c-18 -14 -17 -15 21 -10 l40 5 -24 -19 c-24 -21 -39 -24 -64 -14
-19 7 -10 41 12 47 31 9 35 7 15 -9z m-1467 -10 c-3 -3 -12 -4 -19 -1 -8 3 -5
6 6 6 11 1 17 -2 13 -5z m3438 -19 c18 -7 18 -9 3 -12 -10 -3 -18 -8 -18 -13
0 -5 -8 -6 -17 -3 -16 6 -17 5 -3 -9 23 -22 64 -34 58 -17 -3 8 -12 13 -22 11
-23 -4 -20 3 9 22 l26 17 -5 -40 c-7 -62 -22 -82 -54 -75 -56 12 -97 27 -84
31 6 3 12 10 12 18 0 7 7 18 15 25 8 7 15 21 15 31 0 19 31 43 40 30 3 -4 14
-11 25 -16z m1695 5 c0 -5 -4 -10 -10 -10 -5 0 -10 5 -10 10 0 6 5 10 10 10 6
0 10 -4 10 -10z m-3275 -10 c-3 -5 -15 -10 -26 -10 -10 0 -19 5 -19 10 0 6 12
10 26 10 14 0 23 -4 19 -10z m1230 0 c3 -5 -3 -10 -15 -10 -12 0 -18 5 -15 10
3 6 10 10 15 10 5 0 12 -4 15 -10z m105 -33 c0 -4 -4 -5 -10 -2 -5 3 -10 2
-10 -3 0 -6 -9 -8 -20 -5 -11 3 -20 10 -20 15 0 6 7 8 15 4 11 -4 15 1 15 17
1 21 1 22 15 3 8 -11 15 -24 15 -29z m1183 31 c15 1 27 -4 27 -10 0 -15 -98
-5 -113 12 -10 10 -5 11 23 5 19 -4 47 -7 63 -7z m-1098 -18 c6 10 10 10 20
-4 15 -20 8 -56 -11 -56 -19 0 -18 10 4 27 15 12 14 13 -13 12 -56 -2 -60 -1
-39 20 16 16 20 16 25 3 4 -13 7 -13 14 -2z m290 10 c3 -5 1 -10 -4 -10 -6 0
-11 5 -11 10 0 6 2 10 4 10 3 0 8 -4 11 -10z m127 -7 c-6 -2 -9 -10 -6 -15 4
-7 2 -8 -5 -4 -13 9 -5 26 12 25 9 0 8 -2 -1 -6z m-3669 -34 c4 -15 1 -19 -11
-17 -21 4 -29 38 -9 38 8 0 17 -9 20 -21z m1590 -2 c21 -9 27 -18 25 -37 -3
-23 -8 -25 -73 -31 -38 -3 -87 -9 -107 -14 -31 -6 -38 -4 -38 8 0 9 5 19 11
22 5 4 14 17 19 30 6 17 21 26 52 33 45 10 64 8 111 -11z m-1090 6 c-7 -2 -19
-2 -25 0 -7 3 -2 5 12 5 14 0 19 -2 13 -5z m3952 -34 c28 -28 29 -29 7 -29
-12 0 -22 -4 -22 -9 0 -9 -86 -6 -135 5 -24 5 -28 4 -18 -6 6 -7 58 -18 115
-25 77 -9 91 -13 58 -15 -30 -2 -37 -4 -20 -7 14 -3 29 -11 33 -19 4 -8 14
-14 20 -14 19 0 50 -57 35 -63 -7 -3 4 -6 26 -6 33 -1 37 1 26 14 -17 21 -11
25 29 16 39 -7 55 -31 21 -31 -12 0 -18 -4 -15 -10 7 -11 -15 -14 -91 -10 -29
1 -55 -3 -58 -9 -4 -6 -28 -12 -54 -12 -26 -1 -39 -3 -29 -6 28 -7 9 -23 -29
-23 -20 0 -42 -6 -49 -14 -16 -16 -73 -14 -235 9 -52 7 -107 11 -122 8 -14 -3
-43 0 -63 7 -29 10 -35 16 -30 31 6 17 3 19 -18 14 -14 -4 -30 -1 -38 7 -8 7
-27 14 -43 15 -41 3 -58 11 -51 23 3 6 18 8 33 4 23 -4 24 -3 10 6 -22 14 -23
30 -3 30 8 0 15 4 15 10 0 6 35 9 88 8 48 -1 107 0 132 1 40 3 42 4 20 12 -17
6 0 7 49 4 41 -3 72 -2 68 2 -8 8 -20 10 -89 20 -27 3 -48 10 -48 15 0 5 13 7
28 3 21 -4 35 0 58 20 27 23 28 25 7 25 -12 0 -27 2 -35 3 -7 2 -10 2 -5 0 4
-3 7 -9 7 -14 0 -12 -37 -12 -45 0 -8 14 28 31 62 31 35 0 105 -24 97 -33 -4
-4 50 -6 120 -5 73 1 130 6 133 12 4 5 2 11 -4 13 -6 2 -19 10 -29 18 -17 13
-16 14 16 9 19 -4 48 -19 65 -35z m474 20 c-18 -12 -126 -12 -133 0 -9 14 7
16 80 13 44 -3 62 -7 53 -13z m-414 -27 c-3 -3 -11 0 -18 7 -9 10 -8 11 6 5
10 -3 15 -9 12 -12z m58 1 c-7 -2 -21 -2 -30 0 -10 3 -4 5 12 5 17 0 24 -2 18
-5z m-4556 -9 c-3 -3 -12 -4 -19 -1 -8 3 -5 6 6 6 11 1 17 -2 13 -5z m2450
-20 c-3 -3 -12 -4 -19 -1 -8 3 -5 6 6 6 11 1 17 -2 13 -5z m1001 -8 c-7 -8
-15 -12 -17 -11 -5 6 10 25 20 25 5 0 4 -6 -3 -14z m304 2 c-9 -9 -15 -9 -24
0 -9 9 -7 12 12 12 19 0 21 -3 12 -12z m69 -7 c-8 -5 -20 -7 -28 -4 -21 8 -15
13 15 13 20 0 23 -3 13 -9z m1327 2 c-10 -2 -26 -2 -35 0 -10 3 -2 5 17 5 19
0 27 -2 18 -5z m-1878 -7 c0 -11 -19 -15 -25 -6 -3 5 1 10 9 10 9 0 16 -2 16
-4z m52 -8 c8 8 16 6 30 -10 22 -26 24 -35 3 -18 -12 10 -19 10 -27 2 -23 -23
-63 -6 -52 22 5 13 9 14 21 5 10 -9 17 -9 25 -1z m1345 6 c-3 -3 -12 -4 -19
-1 -8 3 -5 6 6 6 11 1 17 -2 13 -5z m880 0 c-3 -3 -12 -4 -19 -1 -8 3 -5 6 6
6 11 1 17 -2 13 -5z m-1662 -14 c3 -5 -1 -10 -10 -10 -9 0 -13 5 -10 10 3 6 8
10 10 10 2 0 7 -4 10 -10z m1510 0 c-3 -5 -13 -10 -21 -10 -8 0 -14 5 -14 10
0 6 9 10 21 10 11 0 17 -4 14 -10z m-4013 -17 c-14 -3 -22 -10 -18 -18 3 -8
-5 -15 -22 -18 -15 -2 -35 -8 -44 -12 -13 -5 -18 -3 -18 10 0 9 5 13 10 10 6
-3 10 -1 10 4 0 6 11 11 24 11 14 0 28 5 31 10 3 6 16 9 28 9 21 -2 21 -2 -1
-6z m1018 -8 c0 -10 -9 -15 -27 -14 -24 2 -25 2 -5 6 12 2 22 9 22 14 0 5 2 9
5 9 3 0 5 -7 5 -15z m2157 3 c38 -16 39 -18 23 -28 -8 -5 -22 -4 -34 2 -19 10
-20 10 -7 -5 22 -28 -10 -21 -37 7 -31 34 1 47 55 24z m-3371 -9 c3 -6 -1 -18
-9 -27 -13 -12 -19 -13 -31 -3 -8 7 -24 10 -36 6 -15 -5 -20 -2 -20 10 0 10 5
15 13 12 8 -3 20 -1 28 4 19 12 46 11 55 -2z m3487 -1 c3 -10 7 -10 18 -2 10
8 32 9 72 4 81 -12 87 -24 7 -16 -47 4 -61 3 -50 -5 11 -8 5 -9 -25 -4 -47 8
-57 13 -50 26 9 13 23 11 28 -3z m-1668 -36 c-3 -3 -11 0 -18 7 -9 10 -8 11 6
5 10 -3 15 -9 12 -12z m675 8 c0 -5 -7 -10 -15 -10 -8 0 -15 5 -15 10 0 6 7
10 15 10 8 0 15 -4 15 -10z m-305 -19 c3 -5 -4 -13 -16 -16 -23 -8 -34 -1 -24
14 8 13 32 14 40 2z m1362 3 c-3 -3 -12 -4 -19 -1 -8 3 -5 6 6 6 11 1 17 -2
13 -5z m-1133 -19 c20 -8 36 -20 36 -25 0 -6 7 -10 16 -10 8 0 13 -4 9 -10 -3
-5 -11 -7 -18 -5 -7 2 -24 6 -39 9 -31 7 -61 33 -53 47 8 12 6 12 49 -6z
m-2714 -5 c-12 -8 -11 -10 6 -10 11 0 29 -6 40 -14 18 -14 18 -15 -9 -25 -47
-18 -92 -18 -92 -1 0 8 -9 18 -20 21 -17 6 -15 8 15 22 40 18 86 24 60 7z
m3835 0 c17 -7 15 -9 -12 -9 -18 -1 -33 4 -33 9 0 12 17 12 45 0z m-1525 -10
c0 -5 -4 -10 -9 -10 -6 0 -13 5 -16 10 -3 6 1 10 9 10 9 0 16 -4 16 -10z
m1650 0 c20 -6 14 -8 -28 -9 -33 -1 -51 3 -47 9 7 12 39 12 75 0z m267 4 c-3
-3 -12 -4 -19 -1 -8 3 -5 6 6 6 11 1 17 -2 13 -5z m-5027 -33 c0 -29 -15 -33
-16 -5 -1 13 2 24 7 24 5 0 9 -9 9 -19z m3291 -4 c-13 -13 -26 -3 -16 12 3 6
11 8 17 5 6 -4 6 -10 -1 -17z m1439 8 c42 -4 83 -11 90 -16 11 -7 0 -8 -35 -5
-27 3 -85 8 -127 12 -43 4 -75 10 -73 15 3 4 20 6 38 4 17 -3 66 -7 107 -10z
m-2860 1 c0 -2 -7 -6 -15 -10 -8 -3 -15 -1 -15 4 0 6 7 10 15 10 8 0 15 -2 15
-4z m5 -36 c-3 -5 -16 -10 -28 -10 -18 0 -19 2 -7 10 20 13 43 13 35 0z m1068
3 c-7 -2 -19 -2 -25 0 -7 3 -2 5 12 5 14 0 19 -2 13 -5z m1813 -15 c8 -9 -4
-11 -61 -8 -62 3 -63 16 -1 16 30 -1 58 -4 62 -8z m-1566 -8 c0 -5 -6 -10 -12
-11 -10 0 -10 -2 0 -6 26 -10 10 -23 -30 -23 -32 0 -39 3 -28 10 13 9 13 10 0
10 -8 1 -1 7 15 15 37 16 55 18 55 5z m84 -4 c-4 -10 3 -16 23 -19 21 -3 17
-5 -17 -7 -29 -2 -10 -6 54 -10 75 -6 101 -12 108 -24 5 -9 17 -16 26 -16 16
1 16 2 0 14 -26 19 -22 29 7 22 14 -4 25 -2 25 3 0 5 11 0 24 -12 28 -25 27
-34 -3 -18 -12 7 -22 7 -26 2 -10 -18 35 -34 61 -22 13 6 23 14 22 18 -3 8 5
13 23 13 5 0 8 -4 5 -9 -4 -5 0 -12 6 -14 7 -3 0 -6 -15 -6 -16 -1 -26 -5 -23
-10 3 -5 -11 -11 -32 -13 -20 -3 -46 -9 -56 -13 -16 -7 -18 -5 -13 8 7 20 -3
21 -37 6 -14 -7 -23 -16 -20 -21 3 -4 9 -6 14 -3 5 3 19 1 30 -5 12 -6 27 -7
38 -2 11 6 26 4 42 -4 23 -13 21 -14 -33 -14 -33 0 -56 -4 -52 -9 3 -5 1 -12
-4 -16 -17 -10 20 -45 37 -36 9 5 27 5 41 1 33 -9 91 -1 91 13 0 6 -20 7 -54
3 -49 -5 -54 -4 -59 15 -5 20 -3 20 46 13 29 -4 66 -6 82 -6 17 1 37 -3 45 -8
12 -7 10 -11 -10 -19 -24 -9 -24 -10 8 -10 25 -1 32 3 32 18 0 23 23 33 56 25
17 -4 29 -1 37 10 11 15 19 16 57 7 25 -6 68 -11 95 -11 28 -1 59 -5 70 -10
13 -6 -17 -9 -88 -8 -111 0 -141 -5 -88 -17 17 -4 31 -11 31 -17 0 -5 -12 -7
-27 -4 -16 3 -35 2 -43 -4 -11 -7 -7 -10 18 -10 22 0 31 -4 26 -11 -4 -7 -22
-9 -48 -5 -31 4 -35 3 -18 -4 34 -14 26 -30 -15 -31 -21 0 -32 -3 -25 -6 31
-12 6 -23 -55 -23 -85 0 -74 -11 24 -24 49 -7 78 -16 81 -25 4 -11 -3 -13 -34
-8 -46 8 -213 19 -199 13 6 -2 37 -9 70 -16 74 -16 93 -30 40 -30 -21 0 -36
-2 -34 -5 7 -6 265 -33 373 -38 38 -2 66 -27 29 -27 -27 1 -316 29 -399 39
-40 5 -121 6 -181 4 -94 -4 -113 -2 -127 13 -11 10 -33 17 -57 17 -25 0 -38 4
-36 11 4 11 19 14 94 17 31 1 40 5 36 15 -3 9 2 14 16 14 12 0 21 6 21 14 0
23 -28 39 -57 31 -20 -5 -23 -9 -13 -15 21 -13 -12 -40 -47 -39 -21 1 -23 3
-8 6 24 6 44 23 27 23 -7 0 -12 7 -12 15 0 8 -8 15 -17 15 -21 0 -55 -20 -35
-20 6 0 12 -7 12 -16 0 -11 -5 -14 -16 -10 -9 4 -25 4 -36 0 -18 -5 -18 -7 -2
-19 16 -11 16 -13 -6 -25 -23 -12 -117 -9 -141 5 -22 14 8 22 58 16 39 -6 54
-4 57 6 4 9 -6 13 -35 13 -39 0 -69 17 -69 39 0 6 -7 11 -16 11 -8 0 -12 5 -9
10 3 6 15 10 26 10 13 0 18 4 13 12 -5 8 3 9 30 5 33 -5 36 -4 25 9 -7 8 -18
13 -26 10 -7 -3 -13 -1 -13 4 0 6 -11 10 -25 10 -29 0 -31 7 -8 32 13 14 13
18 2 18 -8 0 -20 9 -27 20 -7 11 -23 20 -37 20 -14 0 -25 5 -25 10 0 11 74 3
103 -12 18 -9 37 -3 37 12 0 4 -10 6 -22 2 -21 -5 -22 -4 -9 11 12 15 11 17
-4 17 -31 0 -9 25 26 29 32 4 33 4 9 11 -25 8 48 4 120 -5 34 -5 34 -5 7 6
-15 6 -24 15 -21 21 4 6 0 14 -7 19 -10 6 -6 9 14 9 15 0 27 5 27 10 0 6 4 10
10 10 5 0 7 -6 4 -14z m66 5 c0 -4 -11 -6 -25 -3 -14 2 -25 6 -25 8 0 2 11 4
25 4 14 0 25 -4 25 -9z m117 3 c-3 -3 -12 -4 -19 -1 -8 3 -5 6 6 6 11 1 17 -2
13 -5z m213 -9 c25 -15 24 -15 -16 -13 -23 1 -50 8 -60 15 -16 12 -14 13 17
13 19 -1 45 -7 59 -15z m904 -4 c3 -5 20 -11 38 -14 18 -3 51 -10 73 -16 22
-6 67 -11 99 -11 33 0 56 -3 53 -6 -19 -20 -257 6 -257 27 0 5 -7 9 -15 9 -18
0 -20 -16 -2 -23 6 -3 2 -6 -10 -6 -13 -1 -23 3 -23 7 0 5 -13 7 -30 4 -18 -3
-30 0 -30 7 0 6 17 11 40 11 22 0 40 5 40 10 0 12 17 13 24 1z m572 -1 c-17
-6 -36 -5 -45 0 -11 7 -3 9 29 9 42 -1 43 -1 16 -9z m-5150 -9 c-4 -5 -1 -12
4 -14 6 -3 5 -4 -2 -3 -15 3 -23 26 -8 26 6 0 9 -4 6 -9z m3562 2 c-10 -2 -26
-2 -35 0 -10 3 -2 5 17 5 19 0 27 -2 18 -5z m388 -3 c15 -6 69 -14 121 -17 52
-3 96 -10 99 -15 13 -20 -281 3 -324 26 -27 15 -27 15 25 16 28 0 64 -5 79
-10z m484 0 c0 -5 -7 -10 -15 -10 -8 0 -15 5 -15 10 0 6 7 10 15 10 8 0 15 -4
15 -10z m290 0 c0 -6 -11 -8 -27 -4 -40 10 -41 14 -5 14 18 0 32 -5 32 -10z
m-3945 -11 c-4 -6 -13 -8 -20 -5 -7 2 -18 -1 -24 -7 -8 -8 -11 -7 -11 6 0 12
8 17 31 17 19 0 28 -4 24 -11z m4235 2 l25 -7 -25 -6 c-14 -3 -72 0 -130 7
l-105 12 105 1 c58 0 116 -3 130 -7z m-3150 -8 c0 -10 -20 -40 -20 -31 0 3 -3
13 -6 22 -4 11 -1 16 10 16 9 0 16 -3 16 -7z m1111 -11 c-7 -2 -18 1 -23 6 -8
8 -4 9 13 5 13 -4 18 -8 10 -11z m579 8 c0 -5 -4 -10 -10 -10 -5 0 -10 5 -10
10 0 6 5 10 10 10 6 0 10 -4 10 -10z m235 -17 c38 -26 39 -28 16 -31 -31 -5
-91 7 -91 17 0 8 -57 28 -100 34 -14 3 11 5 55 6 72 1 84 -2 120 -26z m1525
17 c11 -7 -1 -10 -40 -9 -40 0 -49 3 -35 9 27 12 57 12 75 0z m380 0 c0 -13
-20 -13 -40 0 -12 8 -9 10 13 10 15 0 27 -4 27 -10z m-1260 -10 c0 -5 -13 -10
-30 -10 -16 0 -30 5 -30 10 0 6 14 10 30 10 17 0 30 -4 30 -10z m733 3 c-7 -2
-21 -2 -30 0 -10 3 -4 5 12 5 17 0 24 -2 18 -5z m-3564 -17 c9 -10 8 -15 -3
-19 -10 -4 -14 0 -13 14 2 23 1 23 16 5z m2693 2 c-17 -8 -26 -8 -34 0 -9 9
-4 12 23 11 32 0 33 -1 11 -11z m203 2 c3 -5 -1 -10 -9 -10 -8 0 -18 5 -21 10
-3 6 1 10 9 10 8 0 18 -4 21 -10z m-1500 -20 c-21 -7 -55 -2 -55 9 0 4 17 5
38 3 29 -4 33 -6 17 -12z m1605 10 c0 -5 -2 -10 -4 -10 -3 0 -8 5 -11 10 -3 6
-1 10 4 10 6 0 11 -4 11 -10z m290 -19 c159 -13 289 -30 310 -42 24 -14 -55
-11 -176 7 -60 8 -155 15 -212 14 -77 0 -108 3 -126 15 -14 9 -30 15 -38 14
-24 -3 -39 1 -34 9 3 5 35 5 73 1 37 -5 129 -13 203 -18z m218 22 c-16 -2 -40
-2 -55 0 -16 2 -3 4 27 4 30 0 43 -2 28 -4z m-725 -10 c-7 -2 -19 -2 -25 0 -7
3 -2 5 12 5 14 0 19 -2 13 -5z m-2648 -13 c-27 -12 -43 -12 -25 0 8 5 22 9 30
9 10 0 8 -3 -5 -9z m-60 -26 c-18 -18 -22 -18 -27 4 -4 15 -1 18 18 14 20 -4
21 -6 9 -18z m2565 16 c0 -5 -4 -10 -10 -10 -5 0 -10 5 -10 10 0 6 5 10 10 10
6 0 10 -4 10 -10z m55 0 c17 -7 15 -9 -12 -9 -18 -1 -33 4 -33 9 0 12 17 12
45 0z m181 -5 c66 -1 124 -4 130 -7 5 -3 63 -9 129 -12 223 -12 286 -17 308
-26 13 -5 -40 -8 -136 -6 -87 1 -160 -2 -163 -6 -3 -4 -13 -8 -22 -7 -14 0
-13 2 3 9 11 5 15 9 8 9 -6 1 -19 4 -29 8 -12 4 -15 3 -10 -6 6 -9 -5 -11 -46
-6 -29 3 -109 10 -176 15 -68 5 -130 14 -138 21 -20 16 -18 33 4 24 9 -5 71
-9 138 -10z m-23 8 c-7 -2 -21 -2 -30 0 -10 3 -4 5 12 5 17 0 24 -2 18 -5z
m-831 -15 c-9 -9 -15 -9 -24 0 -9 9 -7 12 12 12 19 0 21 -3 12 -12z m108 -4
c14 -8 17 -13 7 -10 -10 3 -25 6 -33 6 -8 0 -14 5 -14 10 0 14 10 12 40 -6z
m923 9 c-7 -2 -19 -2 -25 0 -7 3 -2 5 12 5 14 0 19 -2 13 -5z m-773 -13 c0 -5
8 -10 17 -10 9 0 13 -3 10 -7 -8 -7 -83 -6 -109 3 -10 3 -16 10 -13 15 8 12
95 12 95 -1z m-2044 -15 c-21 -16 -32 -13 -21 4 3 6 14 11 23 11 15 -1 15 -2
-2 -15z m-251 -5 c-3 -5 -13 -10 -21 -10 -8 0 -14 5 -14 10 0 6 9 10 21 10 11
0 17 -4 14 -10z m2415 0 c-20 -13 -33 -13 -25 0 3 6 14 10 23 10 15 0 15 -2 2
-10z m224 -11 c-3 -5 -21 -9 -41 -9 -28 0 -33 3 -24 13 12 15 74 11 65 -4z
m-2522 -8 c11 -11 9 -12 -9 -7 -12 4 -24 2 -28 -4 -3 -5 -12 -10 -18 -10 -7 0
-6 4 3 10 12 8 11 10 -7 10 -13 0 -23 4 -23 8 0 13 68 8 82 -7z m182 -15 c-15
-11 -15 -14 0 -28 21 -21 20 -35 -2 -47 -14 -7 -22 -5 -34 9 -9 10 -14 21 -11
24 4 3 1 6 -5 6 -7 0 -12 7 -12 16 0 10 5 14 15 10 9 -3 23 3 32 14 9 10 21
17 25 14 5 -3 2 -11 -8 -18z m2169 17 c-7 -2 -19 -2 -25 0 -7 3 -2 5 12 5 14
0 19 -2 13 -5z m437 -12 c47 -6 105 -13 130 -16 158 -19 156 -19 125 -25 -16
-3 -55 -2 -85 2 -30 4 -135 13 -232 19 -143 9 -178 15 -178 26 0 16 77 14 240
-6z m779 3 c8 -7 -113 -2 -139 6 -16 6 5 7 55 4 44 -3 81 -7 84 -10z m96 6
c15 -7 10 -9 -23 -9 -26 -1 -41 3 -37 9 7 12 32 12 60 0z m190 0 c7 -12 -78
-12 -115 0 -18 6 -7 8 42 9 37 1 70 -3 73 -9z m-1897 -7 c-10 -2 -28 -2 -40 0
-13 2 -5 4 17 4 22 1 32 -1 23 -4z m522 -16 c35 -13 166 -27 252 -27 51 0 122
-5 158 -10 78 -12 244 -28 360 -35 47 -3 112 -10 145 -15 33 -5 96 -12 141
-14 89 -6 143 -21 128 -36 -7 -7 -29 -7 -63 0 -149 28 -666 65 -692 50 -11 -7
91 -16 286 -25 46 -2 93 -10 110 -19 17 -9 36 -16 43 -16 7 0 23 -5 35 -11
l21 -12 -22 -8 c-24 -9 -222 13 -266 30 -16 6 -31 10 -33 7 -3 -2 5 -7 16 -11
12 -3 21 -11 21 -17 0 -13 -84 -2 -170 24 -113 33 -128 36 -162 28 l-33 -7 30
-7 c17 -4 47 -14 68 -22 44 -17 208 -36 285 -34 30 0 52 -3 52 -9 0 -7 -29
-11 -73 -11 -40 0 -77 -4 -83 -9 -5 -6 -56 -6 -129 0 -212 16 -410 27 -414 23
-12 -11 18 -15 135 -20 74 -3 146 -11 169 -19 l40 -14 -70 0 c-38 1 -110 5
-160 10 -49 5 -107 9 -127 9 -41 0 -62 18 -30 27 12 3 18 11 16 18 -4 8 6 16
27 20 47 11 16 25 -71 32 -39 3 -78 12 -88 19 -32 23 14 28 92 10 76 -19 102
-22 126 -15 10 3 14 -2 12 -15 -3 -17 1 -18 35 -13 21 4 48 7 61 7 13 0 20 4
17 10 -3 6 -1 10 4 10 6 0 11 3 11 8 0 4 -23 8 -52 10 -28 2 -60 8 -71 13 -10
6 -33 12 -49 15 -17 2 -33 6 -37 10 -8 8 195 -6 239 -17 54 -13 171 -19 165
-8 -4 5 -26 9 -49 9 -24 0 -68 5 -97 10 -30 6 -97 16 -149 21 -168 18 -185 21
-199 33 -21 17 50 28 89 13z m-2530 -11 c0 -3 -4 -8 -10 -11 -5 -3 -10 -1 -10
4 0 6 5 11 10 11 6 0 10 -2 10 -4z m1300 -6 c0 -6 -14 -10 -31 -10 -16 0 -28
3 -25 8 7 11 56 13 56 2z m53 3 c-7 -2 -21 -2 -30 0 -10 3 -4 5 12 5 17 0 24
-2 18 -5z m-33 -34 c0 -9 -57 -15 -93 -11 -15 2 -25 6 -23 10 5 9 116 9 116 1z
m1150 -9 c0 -5 -11 -10 -25 -10 -14 0 -25 5 -25 10 0 6 11 10 25 10 14 0 25
-4 25 -10z m-1106 -19 c3 -4 -6 -6 -19 -3 -14 2 -25 6 -25 8 0 8 39 4 44 -5z
m956 -1 c0 -13 -11 -13 -30 0 -12 8 -11 10 8 10 12 0 22 -4 22 -10z m1299 1
c10 -6 -1 -8 -30 -4 -24 3 -46 7 -48 9 -10 9 65 3 78 -5z m354 -13 c34 -7 57
-17 57 -25 0 -8 13 -13 33 -13 39 -1 85 -24 68 -35 -19 -11 -76 3 -101 25 -13
11 -32 20 -42 20 -11 0 -29 5 -40 11 -12 6 -65 11 -123 10 -83 -1 -105 1 -116
15 -12 15 -4 15 96 10 61 -3 136 -11 168 -18z m-2826 6 c-3 -3 -12 -4 -19 -1
-8 3 -5 6 6 6 11 1 17 -2 13 -5z m81 -6 c21 -21 13 -28 -29 -28 -24 0 -38 4
-34 10 3 6 18 10 33 10 21 0 24 2 12 10 -8 5 -10 10 -4 10 5 0 15 -5 22 -12z
m3012 2 c11 -7 3 -10 -28 -10 -26 0 -41 4 -37 10 8 13 45 13 65 0z m-3990 -40
c-29 -23 -43 -25 -38 -7 5 14 50 38 58 31 2 -3 -6 -14 -20 -24z m1104 18 c-15
-7 -28 -7 -40 1 -16 9 -12 10 21 10 35 0 37 -2 19 -11z m-1224 -12 c0 -8 -11
-17 -25 -20 -14 -4 -25 -13 -25 -22 0 -8 -4 -12 -10 -9 -6 4 -6 12 1 24 10 14
20 22 57 40 1 0 2 -5 2 -13z m550 -6 c0 -5 -2 -10 -4 -10 -3 0 -8 5 -11 10 -3
6 -1 10 4 10 6 0 11 -4 11 -10z m630 -10 c0 -5 -8 -10 -17 -10 -15 0 -16 2 -3
10 19 12 20 12 20 0z m-2950 -20 c-32 -25 -43 -25 -30 0 6 11 21 20 33 20 22
0 22 -1 -3 -20z m1250 5 c0 -8 -4 -15 -9 -15 -5 0 -11 7 -15 15 -3 9 0 15 9
15 8 0 15 -7 15 -15z m1354 -1 c9 -3 13 -10 10 -15 -8 -14 -38 -11 -60 6 -18
14 -18 14 8 15 14 0 33 -3 42 -6z m196 -30 c0 -2 -7 -4 -15 -4 -8 0 -15 4 -15
10 0 5 7 7 15 4 8 -4 15 -8 15 -10z m1205 1 c65 -9 85 -14 85 -25 0 -11 -109
-8 -127 3 -16 10 -63 -2 -63 -17 0 -6 -4 -5 -9 4 -12 17 -4 33 11 24 8 -5 9
-1 5 10 -6 15 -3 17 21 12 15 -3 50 -8 77 -11z m-1315 -20 c6 3 10 2 10 -3 0
-6 -6 -12 -12 -14 -18 -7 -88 3 -88 11 0 16 13 19 46 10 19 -6 39 -7 44 -4z
m1144 6 c3 -4 3 -11 0 -14 -8 -8 -34 3 -34 14 0 11 27 12 34 0z m1429 -21 c69
-10 85 -15 76 -24 -4 -5 -152 12 -177 20 -7 2 -10 9 -7 15 4 6 14 8 22 4 9 -3
48 -10 86 -15z m-2808 0 c-3 -5 -13 -10 -21 -10 -8 0 -12 5 -9 10 3 6 13 10
21 10 8 0 12 -4 9 -10z m165 -10 c25 -5 28 -8 12 -9 -13 0 -21 -5 -17 -11 4
-6 15 -6 32 1 18 7 30 6 37 -1 7 -7 5 -10 -7 -10 -9 0 -17 -4 -17 -10 0 -14
98 -10 104 5 6 17 57 7 79 -16 10 -11 25 -19 35 -19 15 0 15 2 2 11 -11 7 2 8
45 5 33 -3 74 -6 90 -7 48 -1 149 -21 160 -31 9 -10 -33 -6 -109 9 -21 4 -27
2 -24 -8 3 -9 22 -14 54 -15 27 0 64 -6 82 -12 29 -10 48 0 20 11 -10 3 -10 7
-1 17 9 9 15 8 30 -7 26 -26 96 -53 136 -53 35 0 127 -24 164 -42 17 -8 26 -8
38 2 8 7 12 16 9 21 -8 14 12 11 51 -8 47 -22 44 -33 -7 -28 -23 2 -47 0 -54
-6 -15 -12 -94 4 -109 23 -14 18 -88 20 -81 2 6 -16 -29 -20 -39 -4 -3 6 -16
10 -28 10 -18 0 -19 2 -7 10 13 8 13 10 -2 10 -9 0 -20 -4 -23 -10 -3 -5 -24
-10 -46 -10 -24 0 -38 -4 -34 -10 3 -5 2 -10 -4 -10 -5 0 -12 9 -16 19 -4 15
-18 21 -53 26 -26 3 -60 8 -77 10 -26 4 -24 2 18 -22 51 -29 55 -34 32 -53
-11 -9 -25 -10 -55 -2 -23 5 -40 6 -40 1 0 -5 -11 -9 -25 -9 -28 0 -34 17 -7
22 9 2 -17 12 -58 22 -119 28 -150 38 -144 47 3 5 -12 9 -33 10 -34 1 -35 2
-13 9 l25 8 -25 2 c-14 1 -31 2 -38 1 -8 -1 -19 2 -25 7 -7 5 -28 12 -47 15
-19 3 -29 3 -22 0 10 -4 9 -8 -5 -18 -16 -11 -29 -11 -78 1 -33 7 -81 14 -107
14 -45 0 -48 -2 -48 -25 0 -28 15 -33 28 -9 8 15 17 15 78 4 91 -16 96 -18 89
-30 -3 -6 1 -7 9 -4 9 3 16 12 16 20 0 10 9 12 33 8 43 -8 90 -26 99 -37 3 -6
31 -11 61 -12 30 -2 64 -8 75 -14 11 -6 34 -11 51 -11 17 0 31 -4 31 -9 0 -5
-19 -7 -42 -4 -29 4 -39 3 -34 -5 4 -7 16 -12 26 -12 27 0 34 -17 10 -25 -25
-8 -54 1 -102 31 -20 13 -44 21 -52 18 -9 -3 -23 1 -31 10 -10 9 -12 16 -5 16
6 0 8 5 5 11 -4 6 -13 8 -20 5 -7 -2 -30 0 -51 4 -30 7 -41 6 -50 -5 -6 -8
-25 -18 -42 -21 -41 -8 -31 -24 16 -25 l37 -2 -35 -7 c-19 -4 -26 -8 -15 -9
11 -1 31 -8 45 -16 l25 -14 -33 -1 c-19 0 -50 7 -69 17 -24 11 -37 13 -42 5
-4 -7 -19 -8 -44 -3 -23 6 -37 5 -37 -1 0 -5 -13 -7 -30 -3 -23 5 -30 3 -30
-8 0 -19 18 -25 55 -17 39 8 85 -9 85 -32 0 -12 7 -18 23 -17 21 0 21 1 2 9
-20 8 77 5 160 -5 37 -5 39 -4 21 10 -27 20 -4 20 51 -1 60 -23 64 -44 8 -44
-24 0 -54 4 -67 9 -13 5 -48 12 -78 16 -50 7 -53 6 -41 -9 10 -12 25 -15 50
-12 21 2 47 -2 61 -10 l25 -14 -30 1 c-16 1 -41 1 -55 0 l-24 -1 22 -16 c13
-9 26 -14 28 -11 10 10 64 -15 64 -29 0 -9 12 -14 35 -14 26 0 35 -4 35 -16 0
-12 -6 -15 -22 -10 -43 13 -114 18 -99 7 13 -8 11 -13 -8 -28 -33 -27 -19 -53
29 -53 21 0 40 -5 42 -11 2 -6 34 -12 71 -14 38 -2 74 -8 80 -13 7 -5 32 -12
57 -16 42 -6 44 -6 25 8 -11 9 -26 16 -33 16 -7 0 -16 8 -19 18 -4 9 -14 23
-22 30 -13 10 -9 11 24 6 45 -7 80 -23 71 -31 -10 -11 108 -54 132 -48 26 6
29 -7 5 -26 -15 -13 -143 -21 -143 -9 0 3 -12 6 -27 6 -16 1 -57 7 -93 13 -36
7 -82 12 -102 11 -20 0 -54 6 -75 14 -21 7 -57 19 -80 25 -46 13 -57 30 -20
32 22 1 22 1 -3 12 -14 7 -26 19 -28 27 -8 36 -40 51 -82 39 -24 -7 -24 -7 -2
-8 33 -2 27 -21 -8 -21 -16 0 -30 4 -30 8 0 13 -125 64 -147 61 -10 -2 -29 1
-42 5 -40 14 -4 26 78 26 41 0 72 2 69 5 -7 8 -107 26 -135 26 -13 -1 -23 4
-23 10 0 6 -7 8 -16 5 -18 -7 -97 17 -132 40 -23 15 -24 15 -17 -5 7 -23 -10
-29 -18 -7 -6 14 -47 11 -47 -3 0 -4 -13 -6 -30 -3 -16 2 -30 8 -30 13 0 5
-10 9 -23 9 -13 0 -28 5 -35 12 -7 7 -12 9 -12 5 0 -4 -9 -3 -20 3 -11 6 -18
15 -15 20 3 5 -4 11 -15 15 -21 7 -26 20 -12 29 11 6 28 -6 34 -24 3 -10 18
-13 55 -11 28 1 54 -2 57 -8 7 -11 97 -8 128 4 11 4 28 -1 44 -14 15 -12 35
-21 45 -21 10 0 25 -10 35 -22 16 -23 16 -23 10 10 -5 30 6 44 19 22 3 -5 15
-10 26 -10 19 0 19 1 5 16 -9 8 -16 21 -16 28 0 8 -7 19 -15 26 -8 7 -15 20
-15 30 0 10 7 20 15 24 8 3 15 18 15 34 0 37 42 61 114 65 56 2 67 12 44 36
-11 10 -5 12 29 8 24 -2 45 -6 48 -9 3 -3 27 6 53 18 27 14 56 21 67 18 11 -3
36 -9 55 -14z m2350 0 c0 -5 -4 -10 -10 -10 -5 0 -10 5 -10 10 0 6 5 10 10 10
6 0 10 -4 10 -10z m515 0 c8 -13 -35 -13 -55 0 -11 7 -7 10 17 10 17 0 35 -4
38 -10z m-4297 -19 c17 -10 -1 -25 -40 -35 -34 -8 -37 7 -6 28 26 18 28 19 46
7z m1527 -1 c3 -5 1 -10 -4 -10 -6 0 -11 5 -11 10 0 6 2 10 4 10 3 0 8 -4 11
-10z m2426 -5 c46 -7 120 -15 164 -16 43 -1 97 -6 120 -12 22 -5 64 -12 94
-16 30 -3 56 -12 59 -18 5 -17 -35 -17 -161 3 -56 8 -127 14 -157 13 -190 -7
-259 6 -244 46 8 19 21 19 125 0z m-1826 -7 c14 -6 25 -17 25 -25 0 -7 9 -13
20 -13 11 0 20 5 20 10 0 16 22 12 36 -7 11 -14 16 -15 22 -5 11 16 80 8 155
-17 30 -11 89 -22 130 -26 73 -7 120 -25 105 -41 -5 -4 -19 -2 -33 4 -14 7
-49 12 -77 12 -49 0 -77 6 -160 36 -26 9 -45 11 -62 4 -13 -5 -26 -7 -29 -4
-2 2 -46 6 -98 9 -52 2 -114 10 -139 18 -43 13 -44 14 -22 25 17 10 32 10 63
2 23 -6 44 -9 47 -6 3 3 -2 6 -10 6 -9 0 -21 7 -28 15 -15 18 -1 20 35 3z
m1275 4 c0 -4 -16 -8 -35 -8 -21 0 -30 3 -22 8 16 10 57 10 57 0z m240 -21 c3
-4 34 -13 70 -20 36 -7 86 -22 112 -33 26 -11 51 -18 55 -15 5 3 15 1 23 -5
12 -8 11 -9 -3 -4 -14 5 -11 -3 12 -33 l31 -38 127 -12 c251 -23 237 -20 250
-47 10 -21 9 -24 -7 -24 -11 0 -21 4 -24 9 -4 5 -23 8 -44 6 -20 -2 -64 3 -97
11 -76 18 -95 17 -95 0 0 -9 22 -22 58 -33 31 -10 62 -24 68 -32 6 -8 26 -14
44 -14 24 0 40 -8 56 -26 12 -14 20 -30 17 -35 -7 -11 -115 -1 -208 19 -38 8
-121 18 -184 21 -63 3 -125 10 -138 15 -13 5 -52 9 -86 9 -34 0 -81 7 -104 15
-24 8 -58 17 -78 19 -48 6 -105 26 -105 36 0 5 46 7 103 3 81 -4 112 -10 151
-30 39 -20 50 -22 57 -11 5 7 4 14 0 16 -5 2 -7 11 -4 21 3 13 -6 22 -38 34
-23 9 -45 15 -49 12 -9 -5 -101 19 -126 33 -17 10 -17 11 -1 12 38 0 14 19
-39 30 -59 12 -90 8 -78 -11 5 -9 -2 -10 -24 -6 -56 11 -34 -2 41 -24 75 -23
161 -58 155 -64 -6 -6 -182 25 -228 40 -25 8 -74 17 -110 20 -66 5 -97 19 -67
31 19 7 13 24 -9 24 -8 0 -19 -11 -24 -25 -8 -22 -14 -24 -65 -23 -30 1 -51 5
-45 8 6 4 12 15 14 25 1 9 13 23 27 31 13 7 22 14 19 14 -3 1 -34 4 -70 7 -36
3 -72 9 -80 14 -10 6 16 7 70 4 140 -10 149 -12 164 -24 8 -6 25 -9 38 -6 13
3 42 2 63 -4 22 -5 57 -14 78 -19 20 -6 37 -7 37 -3 0 14 -42 31 -95 37 -67 8
-72 24 -7 25 26 0 41 3 35 6 -22 8 -14 25 10 21 12 -2 21 -9 20 -16 -2 -7 9
-12 30 -12 24 0 28 3 17 10 -29 18 32 11 110 -14 91 -28 157 -39 164 -27 3 5
-14 14 -39 20 -24 6 -47 15 -50 21 -3 5 -19 10 -35 10 -33 0 -50 17 -23 22 25
5 147 -12 153 -21z m-1648 7 c-16 -15 -106 -13 -97 2 4 6 29 10 55 8 27 -2 46
-6 42 -10z m1225 6 c-3 -3 -12 -4 -19 -1 -8 3 -5 6 6 6 11 1 17 -2 13 -5z
m1173 -4 c0 -5 -11 -10 -25 -10 -14 0 -25 5 -25 10 0 6 11 10 25 10 14 0 25
-4 25 -10z m400 0 c12 -8 11 -10 -7 -10 -13 0 -23 5 -23 10 0 13 11 13 30 0z
m-4098 -32 c-15 -15 -26 -4 -18 18 5 13 9 15 18 6 9 -9 9 -15 0 -24z m2447 26
c49 -10 36 -26 -16 -20 -27 2 -49 5 -51 5 -2 1 0 6 3 11 7 12 21 12 64 4z
m-2123 -19 c-21 -16 -32 -13 -21 4 3 6 14 11 23 11 15 -1 15 -2 -2 -15z m-38
-71 c2 -1 1 -12 -3 -23 -6 -21 -35 -30 -35 -12 0 5 -7 17 -16 25 -31 31 10 38
54 10z m1969 20 c-3 -3 -12 -4 -19 -1 -8 3 -5 6 6 6 11 1 17 -2 13 -5z m1202
-6 c48 -7 100 -20 116 -30 l30 -19 -100 6 c-120 7 -235 24 -235 34 0 25 58 28
189 9z m269 -25 c6 -19 -33 -16 -49 3 -11 14 -9 15 16 12 16 -1 30 -9 33 -15z
m-3605 -9 c9 -4 17 -10 17 -15 0 -11 -31 -12 -45 -1 -15 11 -18 35 -3 28 7 -3
21 -9 31 -12z m-128 -5 c10 -15 4 -18 -27 -12 -15 3 -25 9 -22 14 7 12 41 11
49 -2z m1675 -4 c0 -17 -2 -18 -24 -9 -23 9 -20 24 4 24 11 0 20 -7 20 -15z
m530 5 c0 -5 -15 -9 -32 -9 l-33 1 30 8 c17 4 31 8 33 9 1 0 2 -3 2 -9z m520
0 c0 -5 -4 -10 -10 -10 -5 0 -10 5 -10 10 0 6 5 10 10 10 6 0 10 -4 10 -10z
m1095 0 c3 -5 1 -10 -4 -10 -6 0 -11 5 -11 10 0 6 2 10 4 10 3 0 8 -4 11 -10z
m-3745 -9 c0 -6 -4 -13 -10 -16 -5 -3 -10 1 -10 9 0 9 5 16 10 16 6 0 10 -4
10 -9z m-1910 -16 c0 -8 -7 -15 -15 -15 -9 0 -12 6 -9 15 4 8 10 15 15 15 5 0
9 -7 9 -15z m2089 -21 c17 -16 15 -19 -19 -28 -14 -3 -19 -3 -12 0 20 9 3 24
-28 24 -31 0 -48 15 -28 23 19 8 71 -3 87 -19z m541 11 c11 -13 8 -15 -16 -15
-39 0 -74 10 -74 21 0 15 77 10 90 -6z m-950 -15 c0 -5 -7 -10 -16 -10 -8 0
-12 5 -9 10 3 6 10 10 16 10 5 0 9 -4 9 -10z m1960 -30 c0 -5 -4 -10 -9 -10
-6 0 -13 5 -16 10 -3 6 1 10 9 10 9 0 16 -4 16 -10z m-3547 -21 c24 -14 21
-21 -18 -46 -43 -28 -51 -29 -58 -3 -3 11 -1 20 4 20 5 0 9 7 9 15 0 8 -9 15
-19 15 -11 0 -23 5 -27 11 -8 14 79 3 109 -12z m2574 -6 c3 -8 -4 -12 -20 -11
-16 1 -23 7 -20 16 7 16 35 12 40 -5z m2900 11 c-3 -3 -12 -4 -19 -1 -8 3 -5
6 6 6 11 1 17 -2 13 -5z m-2783 -29 l31 -13 -36 -1 c-39 -1 -93 21 -82 33 8 8
42 1 87 -19z m281 -6 c5 -5 -4 -9 -22 -9 -38 0 -63 9 -63 22 0 10 70 0 85 -13z
m194 -12 c36 -7 66 -18 69 -25 4 -14 -24 -16 -33 -2 -9 15 -25 12 -25 -5 0 -8
7 -15 15 -15 8 0 15 -4 15 -9 0 -5 -9 -7 -20 -4 -11 3 -20 14 -20 24 0 14 -7
19 -27 19 -45 0 -77 11 -61 21 15 10 8 11 87 -4z m258 -24 c13 -3 21 -8 18
-12 -2 -4 4 -7 13 -7 9 1 17 -3 17 -9 0 -5 -9 -9 -20 -8 -38 3 -105 16 -105
20 0 13 27 31 40 26 8 -3 25 -8 37 -10z m-722 -3 c3 -5 30 -10 60 -10 30 0 57
-5 60 -10 4 -6 26 -8 56 -4 35 5 49 3 49 -5 0 -8 8 -10 23 -6 16 4 18 4 8 -3
-11 -8 -9 -11 8 -17 11 -3 21 -11 21 -16 0 -5 8 -9 18 -9 23 -1 56 -26 43 -34
-13 -9 -60 3 -89 21 -13 8 -49 17 -80 20 -37 4 -63 12 -75 25 -19 19 -55 17
-68 -5 -4 -6 -20 -2 -40 9 -19 11 -36 20 -38 21 -5 3 23 32 31 33 4 0 10 -4
13 -10z m2692 4 c-3 -3 -12 -4 -19 -1 -8 3 -5 6 6 6 11 1 17 -2 13 -5z m110
-31 c2 -6 -4 -13 -13 -17 -20 -8 -19 -8 -28 28 -7 28 -7 29 15 14 13 -8 24
-19 26 -25z m-2652 17 c3 -5 -1 -10 -10 -10 -9 0 -13 5 -10 10 3 6 8 10 10 10
2 0 7 -4 10 -10z m-908 -6 c-3 -3 -12 -4 -19 -1 -8 3 -5 6 6 6 11 1 17 -2 13
-5z m-78 -25 c23 -7 41 -18 41 -26 0 -7 -3 -13 -6 -13 -6 0 -105 32 -113 37
-9 5 13 24 24 19 7 -2 31 -10 54 -17z m-134 2 c5 -10 -35 -44 -43 -37 -6 7 18
46 28 46 5 0 11 -4 15 -9z m259 -17 c17 -6 22 -24 8 -24 -5 0 -17 7 -28 15
-19 15 -8 20 20 9z m809 -11 c4 -7 18 -13 29 -13 14 0 19 -3 12 -10 -12 -12
-81 8 -88 25 -6 15 37 13 47 -2z m524 1 c-3 -3 -12 -4 -19 -1 -8 3 -5 6 6 6
11 1 17 -2 13 -5z m-3342 -44 c7 -30 13 -33 68 -33 31 1 30 4 31 -101 1 -71
-1 -80 -21 -93 -18 -12 -26 -13 -38 -3 -8 6 -14 15 -13 18 3 23 -6 32 -37 38
-21 4 -40 15 -46 27 -11 19 -9 20 33 14 l44 -6 -1 34 c-1 19 -8 41 -15 50 -8
10 -15 23 -16 30 -1 7 -5 22 -9 34 -3 12 -2 21 4 21 5 0 12 -13 16 -30z m2925
20 c0 -5 -4 -10 -10 -10 -5 0 -10 5 -10 10 0 6 5 10 10 10 6 0 10 -4 10 -10z
m-875 -10 c4 -6 -7 -10 -27 -9 -27 0 -30 2 -13 9 27 12 33 12 40 0z m1538 -6
c20 -3 37 -10 37 -15 0 -11 -5 -11 -73 2 -31 7 -57 16 -57 21 0 5 12 7 28 4
15 -3 44 -8 65 -12z m-314 -18 c40 -13 50 -31 24 -45 -32 -16 -132 36 -117 61
5 8 33 3 93 -16z m2146 2 c7 -8 1 -9 -25 -4 -19 3 -39 11 -45 18 -7 8 -1 9 25
4 19 -3 39 -11 45 -18z m-2018 -2 c-2 -6 -11 -11 -20 -10 -66 3 -77 5 -77 13
0 6 23 9 50 9 31 -1 49 -6 47 -12z m-2837 -16 c0 -5 -4 -10 -10 -10 -5 0 -10
5 -10 10 0 6 5 10 10 10 6 0 10 -4 10 -10z m2532 -16 c7 -5 25 -7 40 -5 28 2
39 -14 16 -22 -10 -3 -10 -8 1 -21 8 -9 20 -15 28 -12 7 3 13 -1 13 -9 0 -22
-29 -18 -90 13 -62 30 -106 68 -87 75 13 4 59 -7 79 -19z m381 -1 c26 -9 47
-21 47 -25 0 -4 8 -8 19 -8 30 0 83 -22 74 -31 -11 -11 -154 11 -147 22 5 9
-15 13 -48 11 -11 -1 -15 3 -12 13 4 10 0 15 -12 16 -18 0 -17 1 1 9 27 12 24
12 78 -7z m302 7 c-3 -5 -11 -10 -16 -10 -6 0 -7 5 -4 10 3 6 11 10 16 10 6 0
7 -4 4 -10z m-1225 -25 c-7 -8 -22 -14 -34 -14 -17 1 -17 2 -3 6 9 2 17 9 17
14 0 5 7 9 16 9 14 0 14 -3 4 -15z m2730 -25 c11 -7 7 -10 -18 -10 -20 0 -31
4 -27 10 8 13 26 13 45 0z m-1844 -30 c8 0 14 -7 14 -15 0 -17 -16 -20 -25 -4
-4 6 -13 8 -21 5 -17 -7 -18 6 -2 22 8 8 14 9 16 2 2 -5 10 -10 18 -10z m-80
-6 c22 6 26 5 18 -4 -16 -16 -56 -9 -61 10 -4 12 -3 13 5 1 7 -9 19 -11 38 -7z
m-126 -8 c0 -11 -19 -15 -25 -6 -3 5 1 10 9 10 9 0 16 -2 16 -4z m647 -2 c-3
-3 -12 -4 -19 -1 -8 3 -5 6 6 6 11 1 17 -2 13 -5z m-779 -45 c39 2 54 -2 58
-14 5 -11 20 -15 64 -14 32 1 62 -1 68 -5 5 -3 38 -8 73 -11 113 -9 138 -15
132 -31 -3 -9 2 -14 15 -14 12 0 24 -5 28 -12 5 -8 -2 -9 -26 -5 -18 4 -41 7
-52 7 -14 0 -18 5 -14 15 7 18 2 19 -32 1 -15 -7 -46 -16 -69 -20 -36 -5 -41
-4 -36 12 3 13 -5 21 -33 31 -25 9 -39 10 -41 4 -5 -13 -84 5 -94 20 -4 5 -22
7 -40 3 -38 -6 -111 15 -117 34 -3 9 5 10 29 5 19 -5 58 -7 87 -6z m-478 -40
c0 -11 -3 -11 -24 -3 -23 9 -20 23 4 17 11 -3 20 -9 20 -14z m97 9 c29 -11 45
-28 26 -28 -16 0 -73 25 -73 32 0 11 8 10 47 -4z m73 -8 c0 -5 -5 -10 -11 -10
-5 0 -7 5 -4 10 3 6 8 10 11 10 2 0 4 -4 4 -10z m914 -5 c12 -8 47 -19 77 -24
30 -5 87 -14 126 -21 40 -6 75 -15 78 -19 2 -5 -8 -14 -22 -20 -20 -9 -24 -14
-14 -21 28 -16 3 -40 -41 -40 -24 0 -52 -3 -64 -6 -12 -3 -27 0 -35 8 -8 7
-30 14 -49 14 -128 4 -141 7 -126 23 13 12 28 13 96 5 44 -5 80 -6 80 -2 0 5
28 8 63 8 39 0 57 4 47 9 -22 13 -78 20 -234 31 -106 7 -144 13 -155 26 -15
15 -9 16 64 12 72 -3 80 -1 77 15 -4 21 2 21 32 2z m-539 -26 c5 -5 -7 -9 -33
-9 -40 0 -51 8 -35 24 9 8 54 -1 68 -15z m-3242 -21 c69 -35 76 -38 99 -38 32
-1 94 -34 90 -49 -1 -8 10 -12 35 -11 60 2 132 -21 165 -52 29 -27 30 -48 2
-48 -8 0 -14 5 -14 10 0 6 -11 10 -25 10 -33 0 -85 38 -78 56 3 8 0 14 -6 14
-6 0 -11 -4 -11 -10 0 -14 -36 -13 -77 2 -28 10 -36 10 -43 -2 -7 -12 -15 -12
-50 0 -23 7 -46 22 -51 32 -7 14 -22 18 -59 18 -47 0 -50 2 -50 25 0 14 5 25
10 25 6 0 10 9 10 20 0 25 2 25 53 -2z m2904 -19 c-14 -8 -22 -8 -30 0 -8 8
-3 11 19 11 25 -1 27 -2 11 -11z m-2177 -17 c0 -4 -9 -13 -20 -20 -22 -13 -27
-3 -8 16 14 14 28 16 28 4z m2050 -17 l23 -25 -41 0 c-29 0 -48 6 -62 20 -27
27 -26 30 18 30 28 0 45 -7 62 -25z m57 19 c-3 -3 -12 -4 -19 -1 -8 3 -5 6 6
6 11 1 17 -2 13 -5z m523 -19 c0 -8 -6 -15 -14 -15 -20 0 -29 17 -14 23 22 9
28 7 28 -8z m110 -22 c27 -9 -26 -22 -64 -16 -35 5 -43 13 -29 26 6 7 62 1 93
-10z m-2941 -19 c3 -16 1 -17 -13 -5 -19 16 -21 34 -3 29 6 -3 14 -13 16 -24z
m2351 -3 c22 -6 23 -8 6 -14 -22 -9 -84 1 -92 14 -6 10 49 10 86 0z m-2274
-38 c-10 -10 -19 5 -10 18 6 11 8 11 12 0 2 -7 1 -15 -2 -18z m2354 17 c0 -5
-5 -10 -11 -10 -5 0 -7 5 -4 10 3 6 8 10 11 10 2 0 4 -4 4 -10z m-2899 -30 c5
0 9 -5 9 -11 0 -15 -43 -7 -48 10 -3 10 0 12 12 8 10 -4 22 -7 27 -7z m-94
-17 c-10 -9 13 -33 32 -33 10 0 32 -11 50 -24 18 -14 55 -27 82 -31 27 -4 56
-13 64 -21 7 -8 20 -14 28 -14 8 0 20 -6 26 -14 18 -21 -16 -88 -49 -97 -52
-14 -92 -10 -97 10 -3 11 -11 22 -18 25 -9 3 -12 17 -9 43 4 33 0 41 -27 62
l-32 25 -26 -32 c-28 -35 -47 -42 -36 -14 14 33 14 65 -1 87 -14 21 -10 35 9
35 6 0 7 -3 4 -7z m639 -8 c10 -8 27 -15 37 -15 27 0 20 -20 -8 -20 -27 0 -75
26 -75 41 0 14 24 11 46 -6z m2464 -45 c0 -5 -5 -10 -11 -10 -5 0 -7 5 -4 10
3 6 8 10 11 10 2 0 4 -4 4 -10z m57 -6 c-3 -3 -12 -4 -19 -1 -8 3 -5 6 6 6 11
1 17 -2 13 -5z m283 -35 c-7 -11 -14 -18 -17 -15 -3 3 0 12 7 21 18 21 23 19
10 -6z m-2563 -11 c-3 -8 -6 -5 -6 6 -1 11 2 17 5 13 3 -3 4 -12 1 -19z m2776
-30 c42 2 45 -5 17 -35 -18 -20 -22 -21 -66 -7 -26 8 -55 14 -65 14 -31 0 -71
19 -63 31 5 8 27 9 73 3 36 -4 83 -7 104 -6z m-3068 -28 c-3 -5 -11 -10 -16
-10 -6 0 -7 5 -4 10 3 6 11 10 16 10 6 0 7 -4 4 -10z m235 -5 c0 -9 -6 -12
-15 -9 -8 4 -12 10 -9 15 8 14 24 10 24 -6z m-17 -30 c-1 -5 -17 -18 -34 -27
-18 -10 -37 -22 -43 -28 -5 -5 -17 -10 -25 -10 -12 0 -11 3 2 18 10 10 17 23
17 28 0 13 41 32 65 30 11 0 19 -5 18 -11z m97 -35 c-6 -11 -13 -20 -15 -20
-3 0 -5 9 -5 20 0 11 7 20 15 20 13 0 14 -4 5 -20z m-469 -6 c7 -8 30 -25 52
-36 22 -11 52 -31 66 -44 l26 -24 -30 0 c-35 0 -109 32 -121 52 -12 17 -49 38
-70 38 -13 0 -14 3 -4 15 16 20 64 19 81 -1z m629 -9 c-7 -8 -16 -12 -21 -9
-13 8 -1 24 18 24 13 0 13 -3 3 -15z m-977 -39 c4 -10 1 -13 -9 -9 -7 3 -14 9
-14 14 0 14 17 10 23 -5z m231 -71 c31 -30 55 -59 52 -64 -3 -5 1 -25 9 -45
14 -34 14 -36 -4 -36 -10 0 -26 11 -35 25 -19 28 -38 32 -56 10 -7 -8 -17 -15
-22 -15 -6 0 -8 7 -4 15 3 9 0 15 -8 15 -8 0 -17 7 -20 16 -4 9 -9 14 -13 10
-6 -6 -12 1 -49 58 -19 30 -19 30 3 24 15 -4 29 2 44 18 12 13 28 24 34 24 6
0 37 -25 69 -55z m526 5 c0 -5 -4 -10 -10 -10 -5 0 -10 5 -10 10 0 6 5 10 10
10 6 0 10 -4 10 -10z m79 -81 c-14 -8 -29 -3 -29 11 0 4 9 6 21 3 15 -4 17 -8
8 -14z m-269 -68 c15 -28 13 -31 -20 -31 -31 0 -39 17 -18 38 17 17 26 15 38
-7z m244 5 c-3 -7 2 -16 10 -19 32 -13 17 -30 -20 -24 -49 8 -53 15 -24 37 30
23 41 25 34 6z m-454 -26 c0 -5 -4 -10 -9 -10 -6 0 -13 5 -16 10 -3 6 1 10 9
10 9 0 16 -4 16 -10z m398 -72 c18 -18 15 -42 -8 -55 -24 -16 -32 -4 -24 36 7
34 13 38 32 19z m-422 -23 c17 -16 14 -18 -10 -9 -9 3 -16 10 -16 15 0 13 9
11 26 -6z m64 -45 c8 -5 11 -10 5 -10 -5 0 -17 5 -25 10 -8 5 -10 10 -5 10 6
0 17 -5 25 -10z m190 -14 c0 -3 -4 -8 -10 -11 -5 -3 -10 -1 -10 4 0 6 5 11 10
11 6 0 10 -2 10 -4z m150 -271 c0 -8 -2 -15 -4 -15 -2 0 -6 7 -10 15 -3 8 -1
15 4 15 6 0 10 -7 10 -15z m1990 -850 c0 -19 -4 -35 -10 -35 -5 0 -10 16 -10
35 0 19 5 35 10 35 6 0 10 -16 10 -35z m94 -74 c3 -5 -10 -18 -29 -30 -34 -20
-35 -20 -25 -1 6 10 18 24 28 29 21 13 20 13 26 2z"/>
<path d="M6815 4026 c10 -7 28 -11 39 -8 20 6 20 6 -4 13 -43 12 -56 10 -35
-5z"/>
<path d="M6513 3943 c9 -2 17 -9 17 -14 0 -5 29 -9 65 -9 47 0 63 3 59 13 -3
8 -30 12 -82 13 -42 1 -69 -1 -59 -3z"/>
<path d="M6378 3813 c7 -3 16 -2 19 1 4 3 -2 6 -13 5 -11 0 -14 -3 -6 -6z"/>
<path d="M6070 3770 c0 -13 18 -22 24 -11 3 5 -1 11 -9 15 -8 3 -15 1 -15 -4z"/>
<path d="M6180 3760 c0 -5 5 -10 10 -10 6 0 10 5 10 10 0 6 -4 10 -10 10 -5 0
-10 -4 -10 -10z"/>
<path d="M5060 3651 c0 -6 5 -13 10 -16 6 -3 10 1 10 9 0 9 -4 16 -10 16 -5 0
-10 -4 -10 -9z"/>
<path d="M5920 3590 c0 -5 -12 -10 -27 -10 -38 0 -22 -11 23 -15 29 -3 34 -2
19 5 -18 8 -17 9 8 9 34 1 36 21 2 21 -14 0 -25 -4 -25 -10z"/>
<path d="M6025 3580 c3 -5 10 -10 16 -10 5 0 9 5 9 10 0 6 -7 10 -16 10 -8 0
-12 -4 -9 -10z"/>
<path d="M5848 3543 c61 -19 70 -38 13 -28 -24 4 -42 2 -46 -4 -3 -6 -14 -11
-25 -11 -27 0 -34 -30 -11 -51 22 -20 141 -38 141 -21 0 6 -6 13 -12 15 -7 3
3 6 23 6 47 1 60 27 18 36 -16 4 -29 11 -29 16 0 12 46 12 70 -1 15 -8 17 -6
13 10 -4 14 0 20 13 20 43 0 2 10 -62 15 -38 3 -89 7 -114 10 l-45 4 53 -16z
m39 -99 c-3 -3 -12 -4 -19 -1 -8 3 -5 6 6 6 11 1 17 -2 13 -5z"/>
<path d="M5485 3530 c3 -5 10 -10 16 -10 5 0 9 5 9 10 0 6 -7 10 -16 10 -8 0
-12 -4 -9 -10z"/>
<path d="M5645 3530 c3 -5 8 -10 11 -10 2 0 4 5 4 10 0 6 -5 10 -11 10 -5 0
-7 -4 -4 -10z"/>
<path d="M5450 3510 c0 -5 5 -10 11 -10 5 0 7 5 4 10 -3 6 -8 10 -11 10 -2 0
-4 -4 -4 -10z"/>
<path d="M5548 3503 c7 -3 16 -2 19 1 4 3 -2 6 -13 5 -11 0 -14 -3 -6 -6z"/>
<path d="M5610 3502 c0 -12 33 -29 70 -36 l35 -7 -40 26 c-40 25 -65 32 -65
17z"/>
<path d="M5773 3403 c9 -2 23 -2 30 0 6 3 -1 5 -18 5 -16 0 -22 -2 -12 -5z"/>
<path d="M5150 3290 c0 -5 5 -10 10 -10 6 0 10 5 10 10 0 6 -4 10 -10 10 -5 0
-10 -4 -10 -10z"/>
<path d="M5030 3180 c0 -5 4 -10 9 -10 6 0 13 5 16 10 3 6 -1 10 -9 10 -9 0
-16 -4 -16 -10z"/>
<path d="M4900 3110 c0 -5 5 -10 11 -10 5 0 7 5 4 10 -3 6 -8 10 -11 10 -2 0
-4 -4 -4 -10z"/>
<path d="M4940 3100 c0 -5 7 -10 16 -10 8 0 12 5 9 10 -3 6 -10 10 -16 10 -5
0 -9 -4 -9 -10z"/>
<path d="M5168 3013 c7 -3 16 -2 19 1 4 3 -2 6 -13 5 -11 0 -14 -3 -6 -6z"/>
<path d="M4170 2940 c0 -5 7 -10 15 -10 8 0 15 5 15 10 0 6 -7 10 -15 10 -8 0
-15 -4 -15 -10z"/>
<path d="M4363 2943 c9 -2 23 -2 30 0 6 3 -1 5 -18 5 -16 0 -22 -2 -12 -5z"/>
<path d="M4071 2901 c-6 -10 -7 -21 -4 -25 7 -7 43 23 43 36 0 16 -29 8 -39
-11z"/>
<path d="M4745 2900 c3 -5 15 -10 25 -10 10 0 22 5 25 10 4 6 -7 10 -25 10
-18 0 -29 -4 -25 -10z"/>
<path d="M4898 2853 c7 -3 16 -2 19 1 4 3 -2 6 -13 5 -11 0 -14 -3 -6 -6z"/>
<path d="M4200 2846 c0 -2 11 -6 25 -8 13 -3 22 -1 19 3 -5 9 -44 13 -44 5z"/>
<path d="M4010 2831 c0 -5 7 -12 16 -15 24 -9 28 -7 14 9 -14 17 -30 20 -30 6z"/>
<path d="M4170 2794 c0 -14 8 -16 41 -11 66 9 73 27 11 27 -41 0 -52 -3 -52
-16z"/>
<path d="M4025 2760 c3 -5 10 -10 16 -10 5 0 9 5 9 10 0 6 -7 10 -16 10 -8 0
-12 -4 -9 -10z"/>
<path d="M4220 2650 c-12 -8 -10 -10 8 -10 13 0 20 4 17 10 -7 12 -6 12 -25 0z"/>
<path d="M4353 2563 c9 -2 23 -2 30 0 6 3 -1 5 -18 5 -16 0 -22 -2 -12 -5z"/>
<path d="M4418 2553 c7 -3 16 -2 19 1 4 3 -2 6 -13 5 -11 0 -14 -3 -6 -6z"/>
<path d="M6580 2852 c0 -17 179 -61 249 -62 37 0 42 2 31 15 -7 8 -28 17 -49
20 -20 4 -63 13 -97 21 -67 16 -134 19 -134 6z"/>
<path d="M6153 2833 c9 -2 23 -2 30 0 6 3 -1 5 -18 5 -16 0 -22 -2 -12 -5z"/>
<path d="M6705 2761 c-9 -15 4 -18 136 -30 144 -14 172 -14 164 -1 -3 6 -25
10 -48 10 -23 1 -62 5 -87 10 -80 17 -158 22 -165 11z"/>
<path d="M6870 2690 c14 -4 39 -8 55 -8 l30 0 -30 8 c-16 4 -41 8 -55 8 l-25
0 25 -8z"/>
<path d="M6932 2654 c14 -14 21 -15 30 -6 8 8 9 12 1 12 -6 0 -20 3 -30 6 -17
7 -17 6 -1 -12z"/>
<path d="M1980 1950 c0 -5 9 -10 20 -10 11 0 20 5 20 10 0 6 -9 10 -20 10 -11
0 -20 -4 -20 -10z"/>
<path d="M3280 3590 l-25 -8 25 0 c14 0 45 3 70 7 l45 8 -45 1 c-25 0 -56 -4
-70 -8z"/>
<path d="M3220 3575 c0 -17 22 -35 42 -35 10 0 18 5 18 11 0 6 -7 8 -16 5 -10
-4 -22 1 -30 11 -7 10 -14 13 -14 8z"/>
<path d="M3481 3551 c-8 -5 -9 -11 -3 -15 13 -8 42 3 42 15 0 11 -21 11 -39 0z"/>
<path d="M3417 3526 c-8 -9 -17 -20 -19 -26 -2 -6 -14 -12 -28 -12 -14 -1 -28
-7 -32 -12 -7 -11 -48 29 -48 47 0 6 -3 8 -6 4 -3 -3 1 -19 9 -36 12 -23 12
-31 2 -35 -15 -5 -27 -46 -13 -46 5 0 23 14 40 31 32 31 36 32 108 14 16 -4
32 0 45 9 14 12 15 14 3 10 -11 -4 -18 2 -23 16 -4 13 -12 19 -21 16 -8 -3
-14 -1 -14 3 0 5 6 11 13 14 6 2 9 7 6 11 -4 4 -14 0 -22 -8z"/>
<path d="M3230 3490 c0 -5 5 -10 10 -10 6 0 10 5 10 10 0 6 -4 10 -10 10 -5 0
-10 -4 -10 -10z"/>
<path d="M3158 3443 c6 -2 18 -2 25 0 6 3 1 5 -13 5 -14 0 -19 -2 -12 -5z"/>
<path d="M3470 3430 c-8 -5 -12 -11 -10 -14 3 -2 14 2 24 10 22 15 10 19 -14
4z"/>
<path d="M3220 3405 c0 -9 6 -12 15 -9 8 4 15 7 15 9 0 2 -7 5 -15 9 -9 3 -15
0 -15 -9z"/>
<path d="M3164 3318 c3 -24 17 -37 31 -32 11 5 11 9 -3 25 -19 22 -31 25 -28
7z"/>
<path d="M3207 3259 c-3 -13 2 -28 14 -40 22 -22 33 -25 26 -5 -3 7 0 19 6 25
8 8 6 15 -9 26 -26 19 -31 19 -37 -6z"/>
<path d="M3175 3158 c4 -18 13 -40 21 -49 8 -8 14 -21 14 -27 0 -20 24 -14 53
13 30 29 35 40 12 31 -10 -4 -15 1 -15 14 0 12 -7 20 -17 20 -10 0 -27 7 -37
15 -30 23 -38 18 -31 -17z"/>
<path d="M2555 3170 c-3 -5 -1 -10 4 -10 6 0 11 5 11 10 0 6 -2 10 -4 10 -3 0
-8 -4 -11 -10z"/>
<path d="M2600 3162 c0 -15 24 -32 47 -32 13 0 23 5 23 11 0 6 -9 8 -22 4 -22
-6 -22 -6 -4 9 19 15 18 16 -12 16 -18 0 -32 -4 -32 -8z"/>
<path d="M2436 3123 c10 -40 14 -41 14 -5 0 18 -5 32 -10 32 -6 0 -8 -11 -4
-27z"/>
<path d="M2521 3126 c-1 -5 7 -18 16 -28 15 -17 15 -20 -12 -48 -16 -17 -36
-30 -45 -30 -12 0 -15 -8 -12 -35 3 -23 0 -35 -8 -35 -10 0 -10 -3 0 -15 7 -8
19 -15 26 -15 9 0 14 -11 14 -30 0 -16 4 -30 9 -30 13 0 24 54 12 58 -32 11 7
92 44 92 8 0 15 3 16 8 9 76 8 115 -3 104 -16 -16 -45 -15 -51 1 -3 6 -6 8 -6
3z m39 -76 c0 -5 -4 -10 -10 -10 -5 0 -10 5 -10 10 0 6 5 10 10 10 6 0 10 -4
10 -10z m-45 -50 c3 -6 -1 -13 -10 -16 -19 -8 -30 0 -20 15 8 14 22 14 30 1z"/>
<path d="M3115 3120 c-3 -5 -1 -10 4 -10 6 0 11 5 11 10 0 6 -2 10 -4 10 -3 0
-8 -4 -11 -10z"/>
<path d="M2382 3088 c-16 -20 -3 -68 17 -61 28 10 41 34 30 54 -11 22 -32 25
-47 7z"/>
<path d="M2480 3090 c0 -5 5 -10 11 -10 5 0 7 5 4 10 -3 6 -8 10 -11 10 -2 0
-4 -4 -4 -10z"/>
<path d="M3095 3030 c-4 -6 6 -10 22 -10 22 0 25 2 13 10 -19 12 -27 12 -35 0z"/>
<path d="M3197 2999 c4 -13 9 -17 15 -11 11 11 3 32 -12 32 -4 0 -6 -9 -3 -21z"/>
<path d="M2343 2993 c-14 -5 -18 -23 -5 -23 5 0 17 7 28 15 14 11 15 14 4 14
-8 0 -21 -3 -27 -6z"/>
<path d="M2410 2990 c0 -5 5 -10 10 -10 6 0 10 5 10 10 0 6 -4 10 -10 10 -5 0
-10 -4 -10 -10z"/>
<path d="M3490 2965 c-10 -13 -9 -15 8 -15 11 0 23 -6 26 -12 2 -7 3 -2 2 11
-3 30 -19 37 -36 16z"/>
<path d="M2600 2959 c0 -5 10 -9 21 -9 16 0 20 -5 16 -19 -2 -10 -1 -25 4 -32
6 -9 9 0 9 27 0 38 -2 42 -25 42 -14 0 -25 -4 -25 -9z"/>
<path d="M3165 2960 c3 -5 8 -10 11 -10 2 0 4 5 4 10 0 6 -5 10 -11 10 -5 0
-7 -4 -4 -10z"/>
<path d="M2550 2945 c7 -8 16 -15 21 -15 5 0 9 7 9 15 0 9 -9 15 -21 15 -18 0
-19 -2 -9 -15z"/>
<path d="M3115 2950 c-4 -7 -1 -16 6 -21 17 -10 26 8 11 23 -6 6 -12 6 -17 -2z"/>
<path d="M3253 2953 c-20 -7 -15 -23 7 -23 11 0 20 4 20 9 0 13 -12 19 -27 14z"/>
<path d="M2388 2933 c-16 -15 -15 -17 5 -33 36 -28 66 -34 74 -14 4 10 0 20
-10 26 -10 5 -17 16 -17 23 0 20 -32 19 -52 -2z"/>
<path d="M3165 2920 c-3 -6 1 -7 9 -4 18 7 21 14 7 14 -6 0 -13 -4 -16 -10z"/>
<path d="M2320 2910 c0 -5 7 -10 15 -10 8 0 15 5 15 10 0 6 -7 10 -15 10 -8 0
-15 -4 -15 -10z"/>
<path d="M2325 2880 c3 -5 13 -10 22 -10 13 0 13 -3 2 -16 -10 -13 -10 -17 1
-24 13 -8 50 4 50 15 0 3 -9 14 -20 25 -20 20 -66 29 -55 10z m54 -41 c-16
-10 -23 -4 -14 10 3 6 11 8 17 5 6 -4 5 -9 -3 -15z"/>
<path d="M2565 2870 c-8 -13 3 -30 20 -30 19 0 26 27 9 34 -21 8 -22 8 -29 -4z"/>
<path d="M3142 2854 c-18 -19 -8 -44 16 -44 11 0 25 -7 32 -15 17 -21 42 -19
38 3 -2 9 -12 16 -21 16 -12 -1 -20 7 -24 27 -6 32 -21 36 -41 13z"/>
<path d="M3245 2850 c-3 -5 -1 -10 4 -10 6 0 11 5 11 10 0 6 -2 10 -4 10 -3 0
-8 -4 -11 -10z"/>
<path d="M2440 2840 c0 -5 5 -10 10 -10 6 0 10 5 10 10 0 6 -4 10 -10 10 -5 0
-10 -4 -10 -10z"/>
<path d="M2836 2841 c-4 -7 -5 -15 -2 -18 9 -9 19 4 14 18 -4 11 -6 11 -12 0z"/>
<path d="M2490 2815 c0 -8 5 -15 10 -15 6 0 10 7 10 15 0 8 -4 15 -10 15 -5 0
-10 -7 -10 -15z"/>
<path d="M3305 2820 c3 -5 8 -10 11 -10 2 0 4 5 4 10 0 6 -5 10 -11 10 -5 0
-7 -4 -4 -10z"/>
<path d="M2696 2801 c-4 -5 -1 -11 6 -13 18 -6 68 3 68 13 0 12 -67 12 -74 0z"/>
<path d="M3255 2800 c-3 -5 -1 -10 4 -10 6 0 11 5 11 10 0 6 -2 10 -4 10 -3 0
-8 -4 -11 -10z"/>
<path d="M2630 2760 c0 -5 5 -10 10 -10 6 0 10 5 10 10 0 6 -4 10 -10 10 -5 0
-10 -4 -10 -10z"/>
<path d="M3280 2754 c0 -17 22 -14 28 4 2 7 -3 12 -12 12 -9 0 -16 -7 -16 -16z"/>
<path d="M3230 2743 c0 -4 5 -15 10 -23 8 -13 10 -13 10 2 0 9 -4 20 -10 23
-5 3 -10 3 -10 -2z"/>
<path d="M2806 2725 c4 -9 11 -14 16 -13 15 5 11 23 -6 26 -11 2 -14 -2 -10
-13z"/>
<path d="M2500 2695 c0 -8 5 -15 10 -15 6 0 10 7 10 15 0 8 -4 15 -10 15 -5 0
-10 -7 -10 -15z"/>
<path d="M2550 2693 c-17 -9 -20 -13 -8 -13 9 0 24 -7 32 -16 17 -17 21 -4 8
27 -6 13 -11 13 -32 2z"/>
<path d="M3190 2680 c-13 -8 -12 -10 3 -10 9 0 17 5 17 10 0 12 -1 12 -20 0z"/>
<path d="M3085 2659 c-16 -6 -14 -8 13 -8 33 -1 41 4 20 12 -7 2 -22 1 -33 -4z"/>
<path d="M2610 2642 c0 -4 10 -13 21 -21 19 -11 21 -11 15 4 -3 9 -6 19 -6 21
0 2 -7 4 -15 4 -8 0 -15 -3 -15 -8z"/>
<path d="M2546 2621 c-10 -11 -15 -25 -11 -31 5 -7 12 -1 21 16 18 34 13 40
-10 15z"/>
<path d="M3395 2620 c3 -5 16 -10 28 -9 21 0 21 1 2 9 -28 12 -37 12 -30 0z"/>
<path d="M3510 2590 c0 -5 5 -10 11 -10 5 0 7 5 4 10 -3 6 -8 10 -11 10 -2 0
-4 -4 -4 -10z"/>
<path d="M2582 2578 c8 -22 36 -34 50 -20 9 9 7 12 -10 12 -12 0 -22 5 -22 10
0 6 -5 10 -11 10 -6 0 -9 -5 -7 -12z"/>
<path d="M3606 2543 c41 -31 52 -34 47 -13 -6 21 -6 21 -42 25 -24 2 -24 2 -5
-12z"/>
<path d="M2898 2543 c7 -3 16 -2 19 1 4 3 -2 6 -13 5 -11 0 -14 -3 -6 -6z"/>
<path d="M3203 2533 c-19 -7 -16 -21 6 -32 20 -11 81 11 81 30 0 12 -7 11 -31
-1 -13 -7 -19 -7 -19 0 0 10 -16 12 -37 3z"/>
<path d="M6181 2511 c-54 -10 -47 -27 16 -38 45 -8 65 -8 88 2 l30 13 -32 1
c-40 1 -64 11 -57 22 3 5 2 8 -3 8 -4 -1 -23 -4 -42 -8z"/>
<path d="M3300 2500 c-13 -8 -12 -10 4 -10 13 0 17 -5 14 -18 -4 -14 0 -18 15
-17 12 1 23 7 25 14 2 6 -1 10 -6 9 -6 -2 -17 5 -24 14 -9 13 -17 15 -28 8z"/>
<path d="M6400 2503 c0 -5 35 -24 78 -42 70 -30 85 -33 157 -31 44 2 98 3 120
2 41 -1 107 -23 106 -35 -1 -4 2 -7 7 -6 4 1 6 5 4 11 -1 5 22 6 59 2 66 -7
78 8 17 22 -18 3 -37 12 -43 19 -8 10 -62 23 -110 27 -10 0 -95 -9 -112 -13
-4 -1 -15 0 -23 4 -55 21 -260 53 -260 40z"/>
<path d="M2750 2490 c0 -5 5 -10 11 -10 5 0 7 5 4 10 -3 6 -8 10 -11 10 -2 0
-4 -4 -4 -10z"/>
<path d="M4073 2483 c9 -2 23 -2 30 0 6 3 -1 5 -18 5 -16 0 -22 -2 -12 -5z"/>
<path d="M3516 2473 c-3 -4 -1 -12 5 -20 14 -16 52 -18 47 -1 -5 13 -44 29
-52 21z"/>
<path d="M3935 2469 c-11 -4 -14 -8 -7 -8 7 -1 10 -6 7 -11 -10 -17 19 -22 71
-12 27 6 38 10 24 11 -14 1 -36 7 -50 14 -15 8 -34 11 -45 6z"/>
<path d="M4013 2473 c9 -2 23 -2 30 0 6 3 -1 5 -18 5 -16 0 -22 -2 -12 -5z"/>
<path d="M3130 2440 c0 -20 4 -30 12 -28 17 6 18 35 2 49 -12 9 -14 6 -14 -21z"/>
<path d="M3372 2449 c-23 -20 -23 -22 -5 -38 10 -9 31 -23 46 -31 26 -13 27
-15 11 -27 -10 -7 -13 -13 -7 -13 7 0 15 5 18 11 4 6 21 10 39 9 57 -3 86 0
86 10 0 5 -13 7 -31 3 -24 -4 -34 -2 -41 10 -5 10 -22 17 -40 17 -23 0 -29 4
-24 15 3 8 9 22 13 32 5 13 2 15 -15 11 -11 -3 -22 -2 -24 3 -2 6 -14 0 -26
-12z m33 -27 c-3 -3 -11 0 -18 7 -9 10 -8 11 6 5 10 -3 15 -9 12 -12z"/>
<path d="M3620 2436 c0 -18 25 -29 69 -31 24 -2 41 -10 56 -29 11 -14 26 -26
33 -26 23 0 -33 52 -82 76 -57 27 -76 30 -76 10z"/>
<path d="M2840 2429 c0 -6 18 -28 41 -49 29 -27 47 -36 61 -32 14 3 19 1 14
-6 -5 -9 6 -12 38 -12 25 0 46 3 46 8 0 4 -34 25 -75 46 -42 21 -78 43 -81 47
-8 13 -44 11 -44 -2z"/>
<path d="M5964 2425 l-29 -12 42 -7 c42 -8 63 -3 63 13 0 15 -47 18 -76 6z"/>
<path d="M2586 2411 c-4 -7 -5 -15 -2 -18 9 -9 19 4 14 18 -4 11 -6 11 -12 0z"/>
<path d="M3285 2410 c4 -6 11 -8 16 -5 14 9 11 15 -7 15 -8 0 -12 -5 -9 -10z"/>
<path d="M3830 2410 c0 -5 11 -10 25 -10 14 0 25 5 25 10 0 6 -11 10 -25 10
-14 0 -25 -4 -25 -10z"/>
<path d="M3980 2406 c0 -9 7 -16 16 -16 17 0 14 22 -4 28 -7 2 -12 -3 -12 -12z"/>
<path d="M6080 2410 c0 -13 11 -13 30 0 12 8 11 10 -7 10 -13 0 -23 -4 -23
-10z"/>
<path d="M6155 2410 c-3 -5 -2 -10 4 -10 5 0 13 5 16 10 3 6 2 10 -4 10 -5 0
-13 -4 -16 -10z"/>
<path d="M3240 2374 c0 -8 5 -12 10 -9 6 3 10 10 10 16 0 5 -4 9 -10 9 -5 0
-10 -7 -10 -16z"/>
<path d="M2608 2350 c5 -33 26 -40 36 -13 5 11 1 22 -10 30 -26 19 -31 16 -26
-17z"/>
<path d="M4031 2359 c-12 -20 -11 -21 6 -14 10 4 33 11 51 15 50 12 51 20 1
20 -34 0 -47 -5 -58 -21z"/>
<path d="M2563 2355 l-23 -12 26 -12 c22 -10 26 -9 21 3 -3 8 -1 16 6 19 6 2
7 6 2 9 -6 2 -20 -1 -32 -7z"/>
<path d="M3563 2347 c-13 -5 -23 -14 -23 -20 0 -5 10 -6 23 -2 29 10 53 10
102 2 l40 -7 -30 14 c-45 20 -87 25 -112 13z"/>
<path d="M2645 2299 c-24 -26 -9 -39 36 -31 l36 7 -27 22 c-27 22 -27 22 -45
2z"/>
<path d="M3310 2280 c0 -19 20 -27 33 -13 8 7 -11 33 -24 33 -5 0 -9 -9 -9
-20z"/>
<path d="M4064 2268 c-3 -4 -18 -8 -34 -8 -38 0 -60 -9 -60 -26 0 -10 6 -11
26 -4 39 15 103 1 121 -26 10 -16 25 -24 45 -24 19 0 38 -10 56 -29 15 -15 42
-33 61 -40 41 -13 61 -14 41 -1 -12 8 -11 10 7 10 15 0 21 -5 17 -14 -4 -9 9
-15 47 -19 58 -7 83 -22 59 -37 -8 -5 -21 -5 -32 1 -10 5 -18 7 -18 3 0 -4 -8
0 -18 10 -14 11 -28 14 -51 10 -23 -5 -29 -9 -19 -15 11 -7 10 -11 -2 -19 -8
-5 -19 -8 -25 -5 -83 35 -130 53 -134 50 -9 -10 10 -35 28 -35 24 0 73 -25 64
-33 -3 -4 10 -7 30 -7 20 0 38 -4 41 -9 3 -5 22 -9 42 -9 24 0 32 3 23 8 -7 5
-11 12 -8 15 7 7 102 -24 109 -36 3 -4 47 -10 97 -14 64 -3 103 -11 125 -24
31 -18 70 -22 83 -9 8 8 108 -17 136 -35 13 -8 54 -25 91 -38 43 -15 69 -30
71 -41 6 -23 27 -23 27 0 1 15 2 15 10 1 5 -8 28 -22 52 -29 24 -7 47 -17 53
-22 5 -4 19 -8 32 -8 28 0 29 -4 2 -31 -16 -16 -23 -18 -29 -9 -5 7 -19 11
-34 8 -21 -4 -26 -1 -26 14 0 18 -1 18 -16 3 -12 -11 -19 -13 -24 -5 -7 12
-107 30 -126 23 -6 -2 -17 4 -25 13 -12 16 -12 17 3 12 9 -4 15 -2 14 5 -3 24
-16 34 -46 35 -16 0 -43 10 -59 21 -16 12 -34 21 -40 21 -6 0 -11 4 -11 8 0 5
-31 7 -70 5 -38 -1 -72 2 -75 7 -8 13 -51 13 -75 0 -14 -8 -30 -6 -56 5 -20 8
-44 15 -54 15 -9 0 -65 14 -124 31 -61 17 -115 27 -124 23 -25 -10 -56 -12
-62 -4 -3 4 -18 10 -35 14 -29 7 -29 7 -10 -8 17 -13 17 -15 4 -16 -24 0 -92
30 -85 38 4 3 -10 11 -31 17 -21 6 -38 15 -38 20 -2 25 -18 55 -29 55 -7 0
-25 9 -39 20 -18 15 -39 20 -79 19 -29 0 -46 -3 -38 -6 8 -3 19 -12 24 -20 4
-8 33 -26 63 -39 46 -21 53 -27 43 -39 -12 -15 -3 -21 53 -39 9 -3 16 -11 15
-17 -5 -21 81 -40 144 -33 45 5 84 0 175 -21 127 -30 147 -39 113 -50 -43 -14
-8 -41 85 -67 33 -9 53 -21 60 -35 7 -17 21 -24 63 -29 31 -4 56 -12 59 -20 3
-8 14 -14 25 -14 11 0 29 -5 41 -12 33 -18 54 -19 67 -3 9 11 8 19 -7 39 -19
26 -33 33 -33 16 0 -5 -8 -10 -17 -10 -15 0 -16 2 -3 10 12 8 13 13 2 30 -16
26 2 26 28 0 19 -19 22 -19 37 -5 16 17 35 16 34 0 0 -6 -9 -11 -21 -13 -11
-2 -20 -8 -20 -13 0 -15 44 -10 68 7 21 15 27 14 75 -5 29 -11 66 -18 82 -16
17 2 40 -3 52 -11 12 -8 29 -14 38 -14 17 0 51 -18 73 -37 18 -17 16 -17 54
15 18 16 48 35 66 43 40 17 41 28 2 36 -40 7 -47 21 -18 32 17 7 9 9 -34 8
-31 -1 -67 4 -80 10 -13 6 -35 14 -50 17 -16 4 -28 13 -28 20 0 13 25 21 103
33 26 4 37 10 37 22 0 10 -6 18 -12 19 -7 0 -23 4 -34 7 -13 4 -27 1 -35 -8
-7 -8 -21 -12 -31 -9 -11 3 -18 -1 -18 -11 0 -23 -56 -30 -80 -10 -11 10 -20
21 -20 24 0 12 84 26 120 21 24 -3 31 -1 28 8 -5 16 -24 21 -100 27 -34 3 -58
1 -58 -5 0 -12 -75 -8 -112 7 -15 5 -43 7 -62 4 -29 -4 -36 -2 -36 10 0 12 -7
15 -32 11 -51 -9 -202 11 -246 32 -22 11 -46 30 -54 44 -17 29 -48 46 -98 54
-43 7 -100 59 -100 90 0 21 -5 24 -47 24 -25 1 -51 6 -57 12 -5 5 -18 10 -27
10 -10 0 -19 5 -21 11 -4 13 -87 19 -94 7z m676 -313 c0 -9 -6 -12 -15 -9 -8
4 -12 10 -9 15 8 14 24 10 24 -6z m-20 -95 c30 -11 56 -20 57 -20 2 0 3 -4 3
-10 0 -26 -133 9 -145 38 -7 18 22 15 85 -8z m-120 -10 c0 -5 -4 -10 -10 -10
-5 0 -10 5 -10 10 0 6 5 10 10 10 6 0 10 -4 10 -10z m360 -44 c0 -2 -7 -6 -15
-10 -8 -3 -15 -1 -15 4 0 6 7 10 15 10 8 0 15 -2 15 -4z"/>
<path d="M3375 2250 c-3 -5 1 -10 9 -10 9 0 16 5 16 10 0 6 -4 10 -9 10 -6 0
-13 -4 -16 -10z"/>
<path d="M6497 2204 c18 -8 65 -18 105 -24 40 -6 98 -18 128 -26 30 -9 63 -18
73 -21 26 -7 20 12 -9 25 -14 7 -23 16 -20 21 8 13 -90 30 -204 34 -95 4 -102
3 -73 -9z"/>
<path d="M3350 2203 c0 -7 -7 -10 -15 -7 -10 4 -15 0 -15 -15 0 -12 5 -21 10
-21 6 0 10 5 10 11 0 6 7 9 15 5 17 -6 19 2 5 24 -6 9 -10 11 -10 3z"/>
<path d="M3482 2178 c7 -19 62 -46 74 -37 6 5 19 6 29 3 17 -7 17 -8 -1 -21
-18 -13 -9 -18 24 -14 8 1 20 -3 27 -9 7 -6 19 -10 27 -9 32 7 66 -13 93 -54
16 -27 40 -49 60 -57 21 -8 31 -18 28 -27 -3 -8 2 -13 12 -13 10 0 15 -6 13
-17 -4 -21 37 -63 62 -63 9 0 25 -8 36 -18 11 -10 33 -22 49 -26 17 -4 38 -9
48 -12 58 -18 -31 48 -118 87 l-46 21 22 19 c21 18 21 19 3 19 -11 0 -48 23
-82 50 -34 28 -66 50 -71 50 -5 0 -15 14 -23 30 -7 17 -19 30 -26 30 -14 0
-94 39 -102 50 -4 6 -110 30 -133 30 -5 0 -7 -5 -5 -12z"/>
<path d="M5987 2155 c-17 -24 -17 -25 3 -25 11 0 20 4 20 9 0 5 3 16 6 25 9
24 -9 18 -29 -9z"/>
<path d="M3382 2129 c-12 -19 -11 -19 8 -9 11 6 20 15 20 20 0 17 -15 11 -28
-11z"/>
<path d="M3232 2118 c3 -7 13 -15 24 -17 16 -3 17 -1 5 13 -16 19 -34 21 -29
4z"/>
<path d="M5660 2111 c0 -8 48 -21 79 -21 13 1 13 3 -3 15 -21 16 -76 20 -76 6z"/>
<path d="M5140 2100 c0 -5 7 -10 16 -10 8 0 12 5 9 10 -3 6 -10 10 -16 10 -5
0 -9 -4 -9 -10z"/>
<path d="M6350 2102 c0 -16 22 -28 78 -41 59 -15 81 -8 36 10 -16 6 -38 15
-49 20 -40 16 -65 20 -65 11z"/>
<path d="M5530 2080 c0 -5 5 -10 10 -10 6 0 10 5 10 10 0 6 -4 10 -10 10 -5 0
-10 -4 -10 -10z"/>
<path d="M5810 2070 c0 -5 5 -10 10 -10 6 0 10 5 10 10 0 6 -4 10 -10 10 -5 0
-10 -4 -10 -10z"/>
<path d="M5898 2073 c-27 -2 -48 -9 -48 -15 0 -5 7 -7 16 -4 8 3 23 2 33 -4
12 -6 31 -5 54 2 41 13 50 29 15 26 -13 -1 -44 -3 -70 -5z"/>
<path d="M6625 2060 c28 -12 37 -12 30 0 -3 6 -16 10 -28 9 -21 0 -21 -1 -2
-9z"/>
<path d="M2820 2049 c0 -5 5 -7 10 -4 6 3 10 8 10 11 0 2 -4 4 -10 4 -5 0 -10
-5 -10 -11z"/>
<path d="M3655 2039 c-21 -8 -19 -9 34 -15 37 -4 37 -2 6 13 -11 6 -29 7 -40
2z"/>
<path d="M4050 2040 c0 -5 9 -14 20 -20 19 -10 20 -10 8 9 -13 22 -28 28 -28
11z"/>
<path d="M3470 2030 c-12 -8 -11 -10 7 -10 12 0 25 5 28 10 8 13 -15 13 -35 0z"/>
<path d="M5815 2030 c-3 -5 1 -10 9 -10 9 0 16 5 16 10 0 6 -4 10 -9 10 -6 0
-13 -4 -16 -10z"/>
<path d="M3197 2023 c-4 -3 -7 -13 -7 -21 0 -12 3 -12 15 -2 8 7 15 16 15 21
0 11 -14 12 -23 2z"/>
<path d="M2902 1938 c-17 -17 -16 -44 1 -30 6 6 16 10 22 9 5 -1 11 6 13 16 4
20 -18 23 -36 5z"/>
<path d="M3270 1935 c0 -8 2 -15 4 -15 2 0 6 7 10 15 3 8 1 15 -4 15 -6 0 -10
-7 -10 -15z"/>
<path d="M3418 1923 c7 -3 16 -2 19 1 4 3 -2 6 -13 5 -11 0 -14 -3 -6 -6z"/>
<path d="M3748 1903 c6 -2 18 -2 25 0 6 3 1 5 -13 5 -14 0 -19 -2 -12 -5z"/>
<path d="M4100 1884 c0 -13 129 -61 172 -63 68 -3 66 12 -5 32 -34 10 -72 22
-85 27 -25 11 -82 14 -82 4z"/>
<path d="M3310 1870 c0 -5 4 -10 9 -10 6 0 13 5 16 10 3 6 -1 10 -9 10 -9 0
-16 -4 -16 -10z"/>
<path d="M3800 1856 c0 -3 9 -10 20 -16 11 -6 20 -8 20 -6 0 3 -9 10 -20 16
-11 6 -20 8 -20 6z"/>
<path d="M5345 1850 c3 -5 13 -10 22 -10 8 0 27 -7 43 -16 21 -13 34 -14 56
-7 l29 10 -32 16 c-35 18 -128 24 -118 7z"/>
<path d="M5515 1811 c-3 -5 0 -13 6 -17 7 -4 9 -3 5 4 -3 6 3 12 16 15 23 4
23 4 1 6 -12 0 -24 -3 -28 -8z"/>
<path d="M4280 1786 c-9 -12 -3 -20 40 -43 113 -61 137 -73 199 -94 36 -12 75
-33 87 -46 27 -29 84 -40 84 -17 0 12 12 14 60 12 33 -2 60 -6 60 -10 0 -5 7
-8 15 -8 8 0 15 4 15 10 0 11 -93 40 -130 40 -37 0 -132 35 -176 65 -20 14
-49 25 -65 25 -15 0 -35 7 -43 16 -9 8 -20 12 -26 9 -5 -3 -10 -1 -10 4 0 6
-7 11 -15 11 -8 0 -15 4 -15 8 0 9 -44 32 -59 32 -5 0 -14 -7 -21 -14z"/>
<path d="M2945 1770 c27 -12 35 -12 35 0 0 6 -12 10 -27 9 -25 0 -26 -1 -8 -9z"/>
<path d="M5840 1765 c51 -17 89 -20 75 -6 -6 5 -35 11 -65 14 l-55 6 45 -14z"/>
<path d="M3070 1763 c0 -14 20 -39 20 -25 0 6 8 12 18 12 14 0 15 2 2 10 -18
12 -40 13 -40 3z"/>
<path d="M3843 1762 c-20 -13 42 -65 114 -97 71 -31 108 -65 101 -93 -9 -34
76 -65 211 -78 23 -3 49 -11 56 -18 20 -20 182 -73 192 -62 13 12 -14 27 -95
52 -48 14 -98 31 -111 38 -13 6 -32 10 -43 8 -10 -2 -18 1 -18 6 0 5 -19 15
-42 22 -85 26 -128 50 -128 69 0 11 9 21 22 25 21 5 22 7 7 21 -9 9 -30 17
-47 17 -17 1 -33 7 -36 15 -3 7 -17 13 -31 13 -36 0 -65 17 -59 34 3 9 -5 16
-23 20 -15 4 -35 9 -43 11 -8 3 -21 1 -27 -3z"/>
<path d="M4124 1756 c11 -9 28 -16 37 -16 10 0 19 -5 21 -11 2 -7 10 -10 17
-8 18 6 -27 36 -65 44 -28 6 -28 6 -10 -9z"/>
<path d="M5724 1739 c-4 -7 2 -10 17 -8 13 2 30 0 37 -4 6 -5 17 -5 24 -1 8 5
6 10 -8 15 -29 11 -62 10 -70 -2z"/>
<path d="M6001 1734 c0 -11 3 -14 6 -6 3 7 2 16 -1 19 -3 4 -6 -2 -5 -13z"/>
<path d="M5535 1729 c22 -5 60 -14 85 -19 25 -4 54 -12 65 -16 11 -4 17 -3 12
1 -16 18 -85 38 -142 41 -57 3 -58 2 -20 -7z"/>
<path d="M6077 1733 c-13 -12 -7 -23 13 -23 11 0 20 7 20 15 0 15 -21 21 -33
8z"/>
<path d="M3111 1711 c3 -8 15 -18 27 -22 17 -6 24 -4 33 12 10 19 9 20 -11 9
-16 -9 -25 -8 -37 2 -14 11 -15 11 -12 -1z"/>
<path d="M5404 1708 c3 -25 17 -38 42 -38 13 0 24 5 24 10 0 6 7 10 16 10 9 0
14 6 12 13 -6 17 -97 22 -94 5z"/>
<path d="M5840 1710 c8 -5 22 -10 30 -10 13 0 13 1 0 10 -8 5 -22 10 -30 10
-13 0 -13 -1 0 -10z"/>
<path d="M2850 1699 c0 -5 5 -7 10 -4 6 3 10 8 10 11 0 2 -4 4 -10 4 -5 0 -10
-5 -10 -11z"/>
<path d="M5890 1689 c0 -5 5 -7 10 -4 6 3 10 8 10 11 0 2 -4 4 -10 4 -5 0 -10
-5 -10 -11z"/>
<path d="M4200 1670 c14 -11 34 -28 45 -36 l20 -17 -20 8 c-11 4 -29 9 -40 12
-19 4 -19 4 -2 -10 10 -8 34 -18 53 -22 19 -3 67 -22 105 -41 38 -19 78 -34
87 -31 18 4 -88 57 -114 57 -17 0 -19 20 -1 20 6 1 -23 19 -66 40 -87 44 -105
49 -67 20z"/>
<path d="M2850 1671 c0 -6 7 -11 15 -11 9 0 15 -7 13 -16 -4 -21 12 -27 32
-14 12 7 12 13 4 27 -12 20 -64 31 -64 14z"/>
<path d="M3660 1670 c0 -5 23 -10 51 -10 31 0 48 4 44 10 -3 6 -26 10 -51 10
-24 0 -44 -4 -44 -10z"/>
<path d="M3046 1662 c-10 -16 10 -30 53 -37 38 -6 43 -5 30 6 -12 13 -63 39
-74 39 -2 0 -6 -4 -9 -8z"/>
<path d="M5640 1660 c0 -5 12 -10 28 -10 21 0 24 2 12 10 -20 13 -40 13 -40 0z"/>
<path d="M6033 1663 c9 -2 23 -2 30 0 6 3 -1 5 -18 5 -16 0 -22 -2 -12 -5z"/>
<path d="M3172 1648 c5 -15 37 -18 41 -3 1 6 -9 12 -22 13 -16 3 -22 -1 -19
-10z"/>
<path d="M3317 1637 c-8 -21 2 -28 32 -21 35 9 51 24 24 24 -12 0 -28 3 -36 6
-8 3 -17 -1 -20 -9z"/>
<path d="M3405 1641 c6 -5 26 -12 45 -16 23 -5 32 -4 25 3 -5 5 -26 12 -45 16
-21 4 -31 3 -25 -3z"/>
<path d="M5597 1634 c-4 -4 -4 -10 -2 -14 6 -10 55 0 55 11 0 10 -43 12 -53 3z"/>
<path d="M5755 1597 c22 -18 75 -23 75 -7 0 6 -13 10 -29 10 -16 0 -38 3 -48
6 -16 6 -16 5 2 -9z"/>
<path d="M2875 1589 c-11 -17 1 -21 15 -4 8 9 8 15 2 15 -6 0 -14 -5 -17 -11z"/>
<path d="M4870 1590 c-13 -8 -12 -10 3 -10 9 0 17 5 17 10 0 12 -1 12 -20 0z"/>
<path d="M4925 1590 c-3 -5 -1 -10 4 -10 6 0 11 5 11 10 0 6 -2 10 -4 10 -3 0
-8 -4 -11 -10z"/>
<path d="M5575 1590 c-3 -5 -2 -10 4 -10 5 0 13 5 16 10 3 6 2 10 -4 10 -5 0
-13 -4 -16 -10z"/>
<path d="M4957 1583 c-4 -3 -7 -11 -7 -17 0 -6 5 -5 12 2 6 6 9 14 7 17 -3 3
-9 2 -12 -2z"/>
<path d="M3473 1568 c22 -6 42 -7 47 -2 5 5 -12 10 -38 10 l-47 2 38 -10z"/>
<path d="M2879 1543 c-7 -10 -9 -15 -5 -11 5 4 15 0 22 -10 12 -15 15 -15 24
-2 7 11 5 16 -5 18 -9 2 -13 8 -10 13 11 17 -12 9 -26 -8z"/>
<path d="M4685 1540 c3 -5 13 -10 21 -10 15 0 19 -15 7 -23 -5 -2 -3 -2 4 -1
6 2 17 -3 23 -11 15 -18 71 -28 165 -28 44 0 71 -3 61 -7 -13 -4 -16 -9 -8
-14 6 -4 20 -2 31 4 14 7 23 6 33 -3 7 -8 19 -12 27 -9 7 2 40 -4 73 -14 l59
-18 24 30 c13 16 21 33 18 38 -3 4 5 5 17 1 15 -5 20 -4 16 4 -11 17 -45 13
-83 -10 l-34 -21 -24 22 c-13 12 -28 19 -34 16 -6 -4 -21 -1 -33 5 -22 12 -49
18 -98 22 -15 1 -24 7 -22 15 2 9 -4 11 -18 7 -12 -4 -27 -1 -35 5 -12 10 -15
9 -15 -4 0 -10 5 -14 11 -10 7 4 9 0 5 -14 -5 -15 -2 -22 11 -25 15 -4 14 -5
-3 -6 -12 0 -24 6 -27 13 -3 8 -23 18 -43 22 -20 4 -49 13 -63 20 -30 16 -75
19 -66 4z"/>
<path d="M4550 1530 c8 -5 20 -10 25 -10 6 0 3 5 -5 10 -8 5 -19 10 -25 10 -5
0 -3 -5 5 -10z"/>
<path d="M5121 1526 c-10 -12 -8 -13 8 -9 12 3 21 9 21 14 0 14 -16 11 -29 -5z"/>
<path d="M5255 1521 c-3 -5 2 -11 10 -15 8 -3 17 -1 20 3 3 5 -2 11 -10 15 -8
3 -17 1 -20 -3z"/>
<path d="M2815 1509 c-4 -6 -5 -13 -2 -16 7 -7 27 6 27 18 0 12 -17 12 -25 -2z"/>
<path d="M3120 1510 c0 -5 5 -10 10 -10 6 0 10 5 10 10 0 6 -4 10 -10 10 -5 0
-10 -4 -10 -10z"/>
<path d="M5420 1511 c0 -10 24 -21 48 -21 11 0 6 6 -12 15 -33 18 -36 18 -36
6z"/>
<path d="M3894 1495 c-8 -20 9 -40 49 -56 18 -7 38 -21 45 -31 7 -10 18 -15
24 -12 6 4 13 2 17 -3 9 -15 100 -53 125 -53 12 0 31 -7 42 -15 12 -8 39 -13
60 -13 21 1 54 -6 72 -15 25 -12 33 -13 29 -3 -8 21 143 16 165 -6 10 -10 24
-18 31 -18 8 0 28 -7 46 -16 39 -19 69 -24 181 -28 47 -2 99 -8 115 -14 67
-24 144 -36 221 -34 68 2 85 -1 104 -18 13 -11 35 -20 49 -20 25 1 26 1 6 16
-33 26 -104 54 -148 58 -84 9 -127 19 -138 32 -6 8 -20 14 -30 14 -10 0 -25
10 -33 22 -15 21 -17 21 -33 6 -15 -16 -15 -18 0 -24 34 -13 17 -26 -25 -20
-24 3 -49 2 -57 -3 -10 -6 -25 -4 -43 5 -16 8 -33 12 -37 9 -5 -3 -40 10 -78
29 -91 46 -146 62 -216 65 -31 1 -73 9 -92 17 -40 16 -75 18 -75 4 0 -5 8 -10
18 -10 20 0 60 -26 52 -33 -6 -7 -136 25 -211 51 -31 11 -86 41 -122 66 -36
25 -71 46 -76 46 -6 0 -11 5 -11 10 0 16 -20 12 -26 -5z"/>
<path d="M2858 1478 c9 -9 3 -16 -26 -30 -51 -24 -60 -23 -54 7 3 20 0 25 -16
25 -11 0 -30 -8 -43 -19 -19 -15 -21 -21 -11 -33 6 -8 9 -18 6 -21 -12 -11 43
-19 95 -13 51 6 111 30 111 44 -1 16 -39 52 -56 52 -14 0 -15 -3 -6 -12z"/>
<path d="M5542 1467 c-13 -15 -62 -21 -62 -7 0 5 -29 9 -64 9 -45 -1 -63 -4
-60 -12 2 -7 14 -13 27 -13 12 -1 42 -4 67 -8 115 -16 180 -18 180 -7 0 6 14
11 30 11 17 0 30 -5 30 -11 0 -6 9 -8 20 -4 21 7 28 -10 8 -18 -8 -3 -6 -6 5
-6 9 -1 17 3 17 8 0 5 12 13 27 18 24 8 17 11 -57 25 -149 29 -157 29 -168 15z"/>
<path d="M3557 1442 c-25 -5 -3 -32 27 -32 31 0 159 -35 196 -53 28 -15 74
-27 120 -32 33 -4 76 -18 90 -30 21 -17 86 -37 107 -33 12 3 4 9 -22 17 -22 7
-92 35 -156 62 -64 27 -125 49 -137 49 -11 0 -24 5 -27 10 -3 6 -17 10 -31 10
-14 0 -35 6 -47 14 -24 15 -90 25 -120 18z"/>
<path d="M4610 1446 c0 -9 30 -14 35 -6 4 6 -3 10 -14 10 -12 0 -21 -2 -21 -4z"/>
<path d="M4725 1410 c-17 -6 -17 -7 6 -13 33 -9 49 -9 49 2 0 12 -32 19 -55
11z"/>
<path d="M5097 1359 c-6 -23 12 -37 23 -18 7 10 16 10 48 1 48 -15 85 -16 77
-2 -3 6 -15 10 -25 10 -10 0 -20 4 -22 9 -1 4 -24 10 -50 13 -39 5 -47 3 -51
-13z"/>
<path d="M5651 1335 c-35 -35 -38 -62 -3 -29 17 17 47 64 40 64 -2 0 -18 -16
-37 -35z"/>
<path d="M4820 1347 c0 -22 9 -25 35 -13 34 15 31 26 -5 26 -18 0 -30 -5 -30
-13z"/>
<path d="M5534 1345 c-18 -14 -18 -14 7 -15 14 0 30 -5 36 -11 12 -12 53 -3
53 12 0 5 -7 9 -15 9 -8 0 -15 5 -15 10 0 15 -44 12 -66 -5z"/>
<path d="M2571 1324 c-18 -21 -5 -31 22 -15 15 10 22 10 25 2 2 -6 10 -11 17
-11 7 0 16 -7 19 -16 4 -9 9 -14 13 -11 8 9 -26 59 -37 52 -5 -3 -11 -1 -15 5
-9 14 -28 12 -44 -6z"/>
<path d="M5277 1329 c7 -7 15 -10 18 -7 3 3 -2 9 -12 12 -14 6 -15 5 -6 -5z"/>
<path d="M4975 1320 c3 -5 14 -10 23 -10 15 0 15 2 2 10 -20 13 -33 13 -25 0z"/>
<path d="M2580 1270 c0 -5 6 -10 14 -10 8 0 23 -3 33 -6 10 -3 7 2 -7 10 -30
18 -40 20 -40 6z"/>
<path d="M3680 1212 c0 -5 18 -18 39 -30 22 -12 41 -26 43 -30 4 -8 87 -66
108 -75 8 -4 -1 -4 -20 -1 l-35 6 25 -19 c24 -19 59 -35 70 -31 3 1 16 -4 29
-11 19 -11 23 -11 19 1 -3 7 -13 18 -24 23 -22 11 -32 55 -13 55 7 0 20 -7 30
-16 24 -22 109 -31 109 -11 0 10 -11 14 -37 14 -21 -1 -54 7 -73 16 -21 11
-36 14 -38 7 -5 -15 -32 -12 -32 4 0 8 -14 16 -32 20 -18 3 -46 18 -63 34 -42
39 -105 65 -105 44z"/>
<path d="M4090 1201 c8 -6 27 -11 41 -11 15 0 32 -7 39 -15 14 -17 40 -20 40
-5 0 15 -51 36 -95 39 -30 1 -36 -1 -25 -8z"/>
<path d="M5315 1190 c3 -5 15 -10 25 -10 10 0 22 5 25 10 4 6 -7 10 -25 10
-18 0 -29 -4 -25 -10z"/>
<path d="M3350 1177 c22 -21 129 -73 175 -86 22 -5 62 -13 89 -16 67 -9 58 15
-12 30 -29 7 -74 26 -100 42 -53 33 -182 58 -152 30z"/>
<path d="M4440 1160 c0 -6 17 -18 38 -28 20 -9 40 -21 43 -26 8 -10 51 2 44
14 -14 23 -125 59 -125 40z"/>
<path d="M4535 1080 c-11 -17 5 -30 36 -30 17 0 32 -6 35 -15 4 -10 20 -15 44
-15 21 0 62 -11 93 -24 55 -25 143 -47 185 -48 12 0 22 -4 22 -10 0 -5 5 -6
10 -3 6 4 4 12 -5 22 -9 8 -18 13 -21 10 -3 -3 -27 7 -52 22 -37 21 -54 26
-80 20 -42 -9 -51 6 -12 20 18 6 30 17 30 27 0 14 -3 15 -12 6 -7 -7 -22 -12
-34 -12 -12 0 -24 -5 -26 -11 -3 -10 -56 2 -133 32 -40 15 -74 19 -80 9z"/>
<path d="M4306 1066 c3 -9 12 -17 20 -17 8 -1 26 -2 42 -4 15 -1 41 -5 57 -10
22 -5 27 -5 20 3 -6 6 -19 13 -30 15 -11 1 -25 5 -30 9 -6 3 -27 9 -48 13 -32
6 -36 5 -31 -9z"/>
<path d="M4195 1062 c15 -17 75 -27 75 -13 0 6 -8 11 -17 11 -10 0 -29 3 -43
6 -18 5 -22 4 -15 -4z"/>
<path d="M4280 1040 c0 -5 5 -10 10 -10 6 0 10 5 10 10 0 6 -4 10 -10 10 -5 0
-10 -4 -10 -10z"/>
<path d="M5048 993 c7 -3 16 -2 19 1 4 3 -2 6 -13 5 -11 0 -14 -3 -6 -6z"/>
<path d="M5115 977 c-26 -20 0 -33 28 -14 19 12 26 12 56 0 23 -10 37 -11 44
-4 25 25 -94 42 -128 18z"/>
<path d="M5048 963 c7 -3 16 -2 19 1 4 3 -2 6 -13 5 -11 0 -14 -3 -6 -6z"/>
<path d="M3600 932 c0 -11 19 -28 53 -45 28 -15 63 -34 77 -42 14 -8 34 -15
45 -15 20 1 20 1 1 15 -11 8 -14 15 -8 15 7 0 12 5 12 10 0 6 -8 10 -18 10
-10 0 -23 5 -29 11 -9 9 -119 59 -130 59 -2 0 -3 -8 -3 -18z"/>
<path d="M4490 943 c0 -17 17 -28 45 -30 l30 -2 -30 19 c-32 21 -45 25 -45 13z"/>
<path d="M5195 930 c3 -5 8 -10 11 -10 2 0 4 5 4 10 0 6 -5 10 -11 10 -5 0 -7
-4 -4 -10z"/>
<path d="M5130 919 c0 -5 -4 -8 -8 -5 -4 2 -14 1 -22 -5 -11 -6 -6 -9 18 -9
22 0 32 5 32 15 0 8 -4 15 -10 15 -5 0 -10 -5 -10 -11z"/>
<path d="M5165 890 c-8 -13 15 -24 27 -12 6 6 4 11 -6 15 -8 3 -18 2 -21 -3z"/>
<path d="M4724 865 c-17 -13 -17 -14 -2 -15 9 0 18 -4 20 -9 2 -5 11 -4 21 4
18 13 18 14 -1 24 -14 8 -24 7 -38 -4z"/>
<path d="M4824 844 c3 -9 6 -18 6 -21 0 -2 7 2 15 11 20 20 19 26 -6 26 -15 0
-19 -4 -15 -16z"/>
<path d="M5258 853 c7 -3 16 -2 19 1 4 3 -2 6 -13 5 -11 0 -14 -3 -6 -6z"/>
<path d="M3860 846 c0 -3 14 -11 30 -20 32 -16 42 -3 11 14 -20 10 -41 13 -41
6z"/>
<path d="M4800 819 c0 -5 5 -7 10 -4 6 3 10 8 10 11 0 2 -4 4 -10 4 -5 0 -10
-5 -10 -11z"/>
<path d="M4160 803 c0 -21 55 -41 90 -34 l35 8 -26 11 c-41 16 -99 25 -99 15z"/>
<path d="M4707 804 c-12 -13 4 -24 34 -24 20 0 29 4 27 13 -5 13 -50 22 -61
11z"/>
<path d="M4980 791 c0 -11 5 -23 10 -26 6 -4 10 5 10 19 0 14 -4 26 -10 26 -5
0 -10 -9 -10 -19z"/>
<path d="M4939 761 l-24 -19 28 5 c15 3 27 12 27 19 0 18 -3 18 -31 -5z"/>
<path d="M4845 720 c4 -6 11 -8 16 -5 14 9 11 15 -7 15 -8 0 -12 -5 -9 -10z"/>
<path d="M4195 709 c-10 -15 1 -23 20 -15 9 3 13 10 10 16 -8 13 -22 13 -30
-1z"/>
<path d="M3570 700 c0 -10 52 -40 70 -40 21 0 9 17 -25 33 -41 20 -45 20 -45
7z"/>
<path d="M4879 698 c0 -2 -3 -16 -5 -32 -4 -25 -3 -28 9 -17 8 6 13 21 10 31
-5 17 -11 26 -14 18z"/>
<path d="M4250 680 c1 -15 19 -32 29 -26 18 12 12 32 -9 32 -11 0 -20 -3 -20
-6z"/>
<path d="M4566 654 c-4 -10 -1 -14 6 -12 15 5 23 28 10 28 -5 0 -13 -7 -16
-16z"/>
<path d="M4950 657 c0 -10 8 -17 18 -17 9 0 13 4 7 8 -5 4 -13 11 -17 16 -5 5
-8 2 -8 -7z"/>
<path d="M4415 650 c-3 -5 -1 -10 4 -10 6 0 11 5 11 10 0 6 -2 10 -4 10 -3 0
-8 -4 -11 -10z"/>
<path d="M4763 640 c-4 -14 -12 -20 -26 -18 -11 2 -22 -3 -24 -9 -3 -7 1 -13
9 -13 10 0 9 -3 -2 -11 -11 -8 -8 -9 15 -4 17 3 38 6 47 6 10 0 20 4 23 10 4
5 15 9 26 9 10 0 19 7 19 15 0 18 -12 19 -28 3 -9 -9 -12 -9 -12 3 0 12 -2 12
-10 -1 -8 -12 -10 -11 -10 8 0 28 -20 29 -27 2z"/>
<path d="M5060 650 c0 -19 37 -53 45 -41 8 14 -1 28 -26 41 -13 8 -19 8 -19 0z"/>
<path d="M4650 640 c0 -5 5 -10 10 -10 6 0 10 5 10 10 0 6 -4 10 -10 10 -5 0
-10 -4 -10 -10z"/>
<path d="M4020 619 c0 -5 5 -7 10 -4 6 3 10 8 10 11 0 2 -4 4 -10 4 -5 0 -10
-5 -10 -11z"/>
<path d="M4590 616 c0 -9 30 -14 35 -6 4 6 -3 10 -14 10 -12 0 -21 -2 -21 -4z"/>
<path d="M4862 604 c-18 -12 -21 -19 -11 -30 15 -18 33 -18 26 0 -3 8 -1 16 5
18 6 2 9 9 7 16 -3 9 -10 8 -27 -4z"/>
<path d="M5040 610 c0 -5 5 -10 10 -10 6 0 10 5 10 10 0 6 -4 10 -10 10 -5 0
-10 -4 -10 -10z"/>
<path d="M4178 603 c-20 -5 -32 -33 -20 -45 5 -5 21 -4 37 2 16 6 42 8 59 5
20 -4 26 -3 18 3 -7 5 -12 15 -10 23 3 14 -49 22 -84 12z"/>
<path d="M4800 560 c0 -5 5 -10 10 -10 6 0 10 5 10 10 0 6 -4 10 -10 10 -5 0
-10 -4 -10 -10z"/>
<path d="M4951 554 c0 -11 3 -14 6 -6 3 7 2 16 -1 19 -3 4 -6 -2 -5 -13z"/>
<path d="M3928 528 c-16 -5 -28 -16 -28 -24 0 -17 2 -17 34 -3 14 7 27 18 30
25 6 16 2 16 -36 2z"/>
<path d="M4395 520 c-20 -9 -19 -10 22 -14 13 -2 34 -15 47 -29 24 -26 56 -36
56 -19 0 18 -75 73 -97 71 -4 0 -17 -4 -28 -9z"/>
<path d="M4138 508 c17 -17 15 -25 -10 -31 -12 -4 -20 -8 -17 -11 3 -3 14 -3
26 0 26 7 39 34 21 46 -20 12 -34 10 -20 -4z"/>
<path d="M4881 504 c0 -11 3 -14 6 -6 3 7 2 16 -1 19 -3 4 -6 -2 -5 -13z"/>
<path d="M3976 495 c4 -8 18 -15 32 -15 20 0 23 3 14 12 -18 18 -52 21 -46 3z"/>
<path d="M4764 495 c8 -8 18 -15 22 -15 3 0 1 7 -6 15 -7 8 -17 15 -22 15 -5
0 -3 -7 6 -15z"/>
<path d="M4855 490 c3 -5 8 -10 11 -10 2 0 4 5 4 10 0 6 -5 10 -11 10 -5 0 -7
-4 -4 -10z"/>
<path d="M4740 476 c0 -2 7 -9 15 -16 9 -7 15 -8 15 -2 0 5 -7 12 -15 16 -8 3
-15 4 -15 2z"/>
<path d="M3856 456 c3 -9 11 -16 16 -16 13 0 5 23 -10 28 -7 2 -10 -2 -6 -12z"/>
<path d="M4184 439 c-3 -5 2 -12 10 -15 9 -3 16 -16 16 -28 0 -19 6 -22 49
-24 51 -2 72 10 67 41 -4 27 -16 33 -23 9 -4 -17 -12 -22 -34 -20 -20 2 -29 8
-29 19 0 18 -47 33 -56 18z"/>
<path d="M4258 433 c7 -3 16 -2 19 1 4 3 -2 6 -13 5 -11 0 -14 -3 -6 -6z"/>
<path d="M3806 415 c-6 -17 20 -33 32 -20 4 4 1 10 -6 12 -6 3 -10 9 -6 14 3
5 1 9 -4 9 -6 0 -13 -7 -16 -15z"/>
<path d="M4395 422 c-10 -11 -5 -21 9 -16 8 3 17 0 21 -5 7 -12 25 -6 25 8 0
10 -47 21 -55 13z"/>
<path d="M4150 410 c0 -12 28 -25 36 -17 3 3 -4 10 -15 17 -15 7 -21 7 -21 0z"/>
<path d="M4490 399 c0 -5 5 -7 10 -4 6 3 10 8 10 11 0 2 -4 4 -10 4 -5 0 -10
-5 -10 -11z"/>
<path d="M4348 383 c-32 -5 -38 -23 -8 -23 11 0 20 -4 20 -10 0 -5 5 -10 10
-10 6 0 10 9 10 19 0 11 6 22 13 24 14 6 -4 6 -45 0z"/>
<path d="M4460 382 c0 -4 9 -13 20 -20 22 -13 27 -3 8 16 -14 14 -28 16 -28 4z"/>
<path d="M4150 364 l-25 -15 25 5 c14 3 31 6 38 6 7 0 10 5 7 10 -8 13 -15 12
-45 -6z"/>
<path d="M4040 340 c0 -5 5 -10 10 -10 6 0 10 5 10 10 0 6 -4 10 -10 10 -5 0
-10 -4 -10 -10z"/>
<path d="M3840 324 c0 -8 5 -12 10 -9 6 4 8 11 5 16 -9 14 -15 11 -15 -7z"/>
<path d="M3980 330 c-8 -5 -12 -11 -9 -14 2 -3 11 -1 19 4 8 5 12 11 9 14 -2
3 -11 1 -19 -4z"/>
<path d="M4340 306 c0 -2 7 -6 15 -10 8 -3 15 -1 15 4 0 6 -7 10 -15 10 -8 0
-15 -2 -15 -4z"/>
<path d="M3916 284 c-8 -20 1 -34 20 -34 20 0 30 30 13 41 -20 12 -26 11 -33
-7z"/>
<path d="M4231 281 c-10 -6 -10 -10 -1 -16 13 -8 24 -1 19 14 -3 6 -10 7 -18
2z"/>
<path d="M4389 280 c-9 -5 -20 -21 -23 -35 -4 -16 -13 -25 -26 -25 -11 0 -20
-4 -20 -10 0 -5 11 -10 24 -10 26 0 39 19 45 65 1 6 5 4 10 -4 11 -17 32 -5
24 14 -6 17 -12 18 -34 5z"/>
<path d="M4140 240 c-10 -18 -9 -25 4 -38 10 -11 16 -12 16 -4 0 7 11 12 24
12 13 0 29 7 36 15 11 13 8 15 -17 15 -16 0 -34 5 -40 11 -8 8 -14 5 -23 -11z"/>
<path d="M4065 220 c3 -5 10 -10 16 -10 5 0 9 5 9 10 0 6 -7 10 -16 10 -8 0
-12 -4 -9 -10z"/>
<path d="M4403 191 c-3 -12 -11 -17 -22 -14 -13 3 -20 -3 -24 -19 -8 -28 -1
-35 39 -42 27 -5 33 -2 50 29 18 34 18 35 -1 49 -27 20 -36 20 -42 -3z"/>
<path d="M4205 170 c3 -5 11 -10 16 -10 6 0 7 5 4 10 -3 6 -11 10 -16 10 -6 0
-7 -4 -4 -10z"/>
<path d="M4170 160 c0 -5 5 -10 10 -10 6 0 10 5 10 10 0 6 -4 10 -10 10 -5 0
-10 -4 -10 -10z"/>
<path d="M4250 140 c0 -5 5 -10 10 -10 6 0 10 5 10 10 0 6 -4 10 -10 10 -5 0
-10 -4 -10 -10z"/>
</g>
</svg>
